<svg xmlns="http://www.w3.org/2000/svg" width="578" height="462" viewBox="0 0 578 462"><defs><style>.a,.b,.f{fill:none;}.a{stroke:#475061;}.a,.b{stroke-linecap:round;stroke-linejoin:round;stroke-width:2px;stroke-dasharray:14 14.5;}.b{stroke:#fff;}.c{fill:#fff;}.d{fill:#29303e;}.e{stroke:none;}</style></defs><g transform="translate(-1187 -1951)"><g transform="translate(53 -158)"><g transform="translate(-188.524 1776.125)"><g class="a" transform="translate(1575.524 394.875)"><path class="e" d="M152,0h21A152,152,0,0,1,325,152v21A152,152,0,0,1,173,325H0a0,0,0,0,1,0,0V152A152,152,0,0,1,152,0Z"/><path class="f" d="M152,1h21A151,151,0,0,1,324,152v21A151,151,0,0,1,173,324H2a1,1,0,0,1-1-1V152A151,151,0,0,1,152,1Z"/></g><g class="b" transform="translate(1322.524 562.875)"><path class="e" d="M116,0H232a0,0,0,0,1,0,0V116A116,116,0,0,1,116,232h0A116,116,0,0,1,0,116v0A116,116,0,0,1,116,0Z"/><path class="f" d="M116,1H230.238a.762.762,0,0,1,.762.762V116A115,115,0,0,1,116,231h0A115,115,0,0,1,1,116v0A115,115,0,0,1,116,1Z"/></g></g><g transform="translate(1264 2075)"><path class="c" d="M99.5,0h0A99.5,99.5,0,0,1,199,99.5V199a0,0,0,0,1,0,0H99.5A99.5,99.5,0,0,1,0,99.5v0A99.5,99.5,0,0,1,99.5,0Z" transform="translate(0 34)"/></g><g transform="translate(1462.571 2256.105)"><path class="c" d="M63.646,67.385l82.539-22.479L154.263.3l-87.1,37.933a95.993,95.993,0,0,1-38.284,8.078H18.337L7.8,70.9H38.708A99.382,99.382,0,0,0,63.646,67.385Z" transform="translate(19.596)"/><path class="c" d="M4,58.04H64.411l80.432,4.215L152.921,18,70.031,33.1a91.049,91.049,0,0,1-16.859,1.4H13.834Z" transform="translate(10.049 44.468)"/><path class="c" d="M62.87,31.7H10.537L0,56.286H55.143a145.449,145.449,0,0,1,42.85,6.322l47.065,14.4,5.62-31.962L86.754,33.807A134.23,134.23,0,0,0,62.87,31.7Z" transform="translate(0 78.886)"/></g><path class="d" d="M144.618,28.612c0-12.8-9.412-23.089-21.041-23.089C107.824,4.784,91.759,4.5,75.352,4.5H70.234c-16.378,0-32.472.284-48.224,1.024C10.408,5.524,1,15.874,1,28.669.286,38.792-.027,48.914,0,59.037q-.043,15.184.967,30.4c0,12.8,9.412,23.174,21.013,23.174,16.549.768,33.524,1.109,50.784,1.08q25.932.085,50.784-1.08c11.63,0,21.041-10.379,21.041-23.174.682-10.151,1-20.274.967-30.425Q145.642,43.825,144.618,28.612ZM58.86,86.931V31.058L100.09,58.98Z" transform="translate(1528.6 2457.306)"/><g transform="translate(1220.291 2128.475)"><path class="d" d="M4033.63-323.62c2.077-3.129,3.779-6.6,6.3-9.323,8-8.627,16.27-16.995,24.486-25.414,4.3-4.407,9.665-4.758,13.873-1.048a10.424,10.424,0,0,1,.72,14.82c-6.734,7.287-13.72,14.342-21.072,21.986,6.832,7.1,13.523,14.128,20.3,21.07,3.194,3.27,4.73,7.343,2.748,11.253a13.373,13.373,0,0,1-7.414,6.4c-2.5.682-6.615-.63-8.577-2.539-9.631-9.375-18.854-19.176-28.033-29-1.574-1.686-2.241-4.222-3.329-6.365Z" transform="translate(-4033.63 388.055)"/><path class="d" d="M4254.383-321.783c-2.035,3.146-3.68,6.656-6.184,9.374-8.09,8.783-16.417,17.353-24.812,25.846-4.056,4.1-9.127,4.326-13.27,1.081a10.456,10.456,0,0,1-2.458-13.269,17.034,17.034,0,0,1,2.61-3.163c6.443-6.75,12.912-13.475,19.722-20.573-2.484-2.661-4.82-5.212-7.207-7.713-4.653-4.872-9.481-9.587-13.963-14.611a10.393,10.393,0,0,1,.819-14.5c4.161-3.787,9.606-3.5,13.895.889,8.239,8.431,16.525,16.82,24.537,25.464,2.523,2.724,4.229,6.2,6.31,9.339Z" transform="translate(-4085.127 388.055)"/><path class="d" d="M0,104.93a32.072,32.072,0,0,1,2.056-5.193Q28.71,52.643,55.5,5.623c3-5.274,8.366-7.012,13.2-4.471s6.592,8.6,3.667,13.886c-7.331,13.241-14.82,26.394-22.3,39.554q-15.859,27.914-31.8,55.778c-2.745,4.8-6.8,6.538-11.487,5.15C2.691,114.311.025,110.64,0,104.93Z" transform="translate(37.85 14.079) rotate(-11)"/></g></g></g></svg>