<svg version="1.2" baseProfile="tiny-ps" xmlns="http://www.w3.org/2000/svg" viewBox="0 0 258 45" width="258" height="45">
	<title>gerencianet-header-svg</title>
	<style>
		tspan { white-space:pre }
		.shp0 { fill: #ffffff } 
		.shp1 { fill: #f37021 } 
	</style>
	<g id="Layer">
		<g id="Layer">
			<path id="Layer" fill-rule="evenodd" class="shp0" d="M54.2 35.4L62 35.4C62.1 35.4 62.19 35.38 62.28 35.34C62.37 35.3 62.45 35.25 62.52 35.19C62.6 35.13 62.66 35.05 62.7 34.97C62.75 34.89 62.78 34.79 62.8 34.7L63.5 31L59.5 31C59.2 31 58.89 30.96 58.6 30.89C58.3 30.83 58.01 30.73 57.74 30.6C57.46 30.47 57.2 30.31 56.96 30.13C56.72 29.94 56.5 29.73 56.3 29.5C56.11 29.28 55.94 29.03 55.8 28.77C55.66 28.51 55.55 28.24 55.47 27.95C55.39 27.67 55.35 27.38 55.34 27.08C55.32 26.79 55.35 26.49 55.4 26.2L57.3 16C57.39 15.54 57.56 15.1 57.8 14.69C58.04 14.29 58.34 13.93 58.71 13.63C59.07 13.33 59.48 13.1 59.92 12.94C60.36 12.78 60.83 12.7 61.3 12.7L65.6 12.7C65.9 12.7 66.21 12.74 66.5 12.81C66.8 12.87 67.09 12.97 67.36 13.1C67.64 13.23 67.9 13.39 68.14 13.57C68.38 13.76 68.6 13.97 68.8 14.2C68.99 14.42 69.16 14.67 69.3 14.93C69.44 15.19 69.55 15.46 69.63 15.75C69.71 16.03 69.75 16.32 69.76 16.62C69.78 16.91 69.75 17.21 69.7 17.5L66.5 34.9C66.41 35.36 66.24 35.8 66 36.21C65.76 36.61 65.46 36.97 65.09 37.27C64.73 37.57 64.32 37.8 63.88 37.96C63.44 38.12 62.97 38.2 62.5 38.2L53.7 38.2L54.2 35.4ZM66.1 16.4C66.13 16.33 66.14 16.26 66.15 16.19C66.15 16.11 66.14 16.04 66.12 15.97C66.11 15.9 66.08 15.83 66.04 15.77C66 15.7 65.96 15.65 65.9 15.6C65.86 15.56 65.82 15.52 65.78 15.48C65.73 15.45 65.68 15.41 65.63 15.39C65.58 15.36 65.53 15.34 65.47 15.33C65.41 15.31 65.36 15.3 65.3 15.3L61.7 15.3C61.6 15.3 61.51 15.32 61.42 15.36C61.33 15.4 61.25 15.45 61.18 15.51C61.1 15.57 61.04 15.65 61 15.73C60.95 15.81 60.92 15.91 60.9 16L58.9 27.1C58.9 27.16 58.9 27.22 58.91 27.28C58.91 27.35 58.93 27.41 58.94 27.47C58.96 27.53 58.98 27.58 59.01 27.64C59.03 27.7 59.07 27.75 59.1 27.8C59.14 27.84 59.18 27.88 59.22 27.92C59.27 27.95 59.32 27.99 59.37 28.01C59.42 28.04 59.47 28.06 59.53 28.07C59.59 28.09 59.64 28.1 59.7 28.1L64 28.1L66.1 16.4Z" />
			<path id="Layer" class="shp0" d="M122 14C121.8 13.77 121.58 13.56 121.34 13.37C121.1 13.19 120.84 13.03 120.56 12.9C120.29 12.77 120 12.67 119.7 12.61C119.41 12.54 119.1 12.5 118.8 12.5L114.5 12.5C114.03 12.5 113.56 12.58 113.12 12.74C112.68 12.9 112.27 13.13 111.91 13.43C111.54 13.73 111.24 14.09 111 14.49C110.76 14.9 110.59 15.34 110.5 15.8L107.8 30.8L111.4 30.8L114.1 16C114.12 15.91 114.15 15.81 114.2 15.73C114.24 15.65 114.3 15.57 114.38 15.51C114.45 15.45 114.53 15.4 114.62 15.36C114.71 15.32 114.8 15.3 114.9 15.3L118.5 15.3C118.56 15.3 118.61 15.31 118.67 15.33C118.73 15.34 118.78 15.36 118.83 15.39C118.88 15.41 118.93 15.45 118.98 15.48C119.02 15.52 119.06 15.56 119.1 15.6C119.14 15.65 119.17 15.7 119.2 15.76C119.23 15.81 119.25 15.87 119.27 15.93C119.29 15.99 119.3 16.05 119.3 16.11C119.31 16.18 119.31 16.24 119.3 16.3L116.7 30.8L120.3 30.8L122.7 17.3C122.8 17.02 122.86 16.73 122.89 16.43C122.91 16.14 122.89 15.84 122.82 15.55C122.76 15.26 122.66 14.98 122.52 14.72C122.38 14.45 122.21 14.21 122 14Z" />
			<path id="Layer" class="shp0" d="M89.8 12.6C89.33 12.6 88.86 12.68 88.42 12.84C87.98 13 87.57 13.23 87.21 13.53C86.84 13.83 86.54 14.19 86.3 14.59C86.06 15 85.89 15.44 85.8 15.9L83.1 30.9L86.7 30.9L89.4 16C89.42 15.91 89.45 15.81 89.5 15.73C89.54 15.65 89.6 15.57 89.68 15.51C89.75 15.45 89.83 15.4 89.92 15.36C90.01 15.32 90.1 15.3 90.2 15.3L95 15.3L95.5 12.4L89.8 12.6L89.8 12.6Z" />
			<path id="Layer" fill-rule="evenodd" class="shp0" d="M82.9 14C83.09 14.23 83.25 14.47 83.39 14.73C83.52 14.99 83.63 15.27 83.71 15.55C83.79 15.84 83.83 16.13 83.85 16.42C83.86 16.71 83.85 17.01 83.8 17.3L83 21.6C82.91 22.06 82.74 22.5 82.5 22.91C82.26 23.31 81.96 23.67 81.59 23.97C81.23 24.27 80.82 24.5 80.38 24.66C79.94 24.82 79.47 24.9 79 24.9L73.5 24.9L73.1 27C73.09 27.06 73.09 27.12 73.1 27.19C73.1 27.25 73.11 27.31 73.13 27.37C73.15 27.43 73.17 27.49 73.2 27.54C73.23 27.6 73.26 27.65 73.3 27.7C73.34 27.74 73.38 27.78 73.42 27.82C73.47 27.85 73.52 27.89 73.57 27.91C73.62 27.94 73.67 27.96 73.73 27.97C73.79 27.99 73.84 28 73.9 28L81.3 28L80.8 30.8L73.6 30.8C73.3 30.8 72.99 30.76 72.7 30.69C72.4 30.63 72.11 30.53 71.84 30.4C71.56 30.27 71.3 30.11 71.06 29.93C70.82 29.74 70.6 29.53 70.4 29.3C70.21 29.08 70.04 28.83 69.9 28.57C69.76 28.31 69.65 28.04 69.57 27.75C69.49 27.47 69.45 27.18 69.44 26.88C69.42 26.59 69.45 26.29 69.5 26L71.4 15.8C71.49 15.34 71.66 14.9 71.9 14.49C72.14 14.09 72.44 13.73 72.81 13.43C73.17 13.13 73.58 12.9 74.02 12.74C74.46 12.58 74.93 12.5 75.4 12.5L79.7 12.5C80 12.5 80.31 12.54 80.6 12.61C80.9 12.67 81.19 12.77 81.46 12.9C81.74 13.03 82 13.19 82.24 13.37C82.48 13.56 82.7 13.77 82.9 14ZM80.25 16.19C80.25 16.11 80.24 16.04 80.22 15.97C80.21 15.9 80.18 15.83 80.14 15.77C80.1 15.7 80.06 15.65 80 15.6C79.96 15.56 79.92 15.52 79.88 15.48C79.83 15.45 79.78 15.41 79.73 15.39C79.68 15.36 79.63 15.34 79.57 15.33C79.51 15.31 79.46 15.3 79.4 15.3L75.8 15.3C75.7 15.3 75.61 15.32 75.52 15.36C75.43 15.4 75.35 15.45 75.28 15.51C75.2 15.57 75.14 15.65 75.1 15.73C75.05 15.81 75.02 15.91 75 16L74 22.2L78.5 22.2C78.6 22.2 78.69 22.18 78.78 22.14C78.87 22.1 78.95 22.05 79.02 21.99C79.1 21.93 79.16 21.85 79.2 21.77C79.25 21.69 79.28 21.59 79.3 21.5L80.2 16.4C80.23 16.33 80.24 16.26 80.25 16.19Z" />
			<path id="Layer" fill-rule="evenodd" class="shp0" d="M107.7 14C107.88 14.23 108.05 14.48 108.18 14.74C108.32 15 108.43 15.27 108.52 15.55C108.61 15.84 108.66 16.12 108.69 16.42C108.72 16.71 108.73 17.01 108.7 17.3L107.9 21.6C107.81 22.06 107.64 22.5 107.4 22.91C107.16 23.31 106.86 23.67 106.49 23.97C106.13 24.27 105.72 24.5 105.28 24.66C104.84 24.82 104.37 24.9 103.9 24.9L98.4 24.9L98 27C97.99 27.06 97.99 27.12 98 27.19C98 27.25 98.01 27.31 98.03 27.37C98.05 27.43 98.07 27.49 98.1 27.54C98.13 27.6 98.16 27.65 98.2 27.7C98.24 27.74 98.28 27.78 98.32 27.82C98.37 27.85 98.42 27.89 98.47 27.91C98.52 27.94 98.57 27.96 98.63 27.97C98.69 27.99 98.74 28 98.8 28L106.2 28L105.7 30.8L98.5 30.8C98.2 30.8 97.89 30.76 97.6 30.69C97.3 30.63 97.01 30.53 96.74 30.4C96.46 30.27 96.2 30.11 95.96 29.93C95.72 29.74 95.5 29.53 95.3 29.3C95.11 29.08 94.94 28.83 94.8 28.57C94.66 28.31 94.55 28.04 94.47 27.75C94.39 27.47 94.35 27.18 94.34 26.88C94.32 26.59 94.35 26.29 94.4 26L96.2 15.8C96.29 15.34 96.46 14.9 96.7 14.49C96.94 14.09 97.24 13.73 97.61 13.43C97.97 13.13 98.38 12.9 98.82 12.74C99.26 12.58 99.73 12.5 100.2 12.5L104.5 12.5C104.8 12.5 105.11 12.54 105.4 12.61C105.7 12.67 105.99 12.77 106.26 12.9C106.54 13.03 106.8 13.19 107.04 13.37C107.28 13.56 107.5 13.77 107.7 14ZM105.1 16.4C105.11 16.34 105.11 16.28 105.1 16.21C105.1 16.15 105.09 16.09 105.07 16.03C105.05 15.97 105.03 15.91 105 15.86C104.97 15.8 104.94 15.75 104.9 15.7C104.86 15.66 104.82 15.62 104.78 15.58C104.73 15.55 104.68 15.51 104.63 15.49C104.58 15.46 104.53 15.44 104.47 15.43C104.41 15.41 104.36 15.4 104.3 15.4L100.7 15.4C100.6 15.4 100.51 15.42 100.42 15.46C100.33 15.5 100.25 15.55 100.18 15.61C100.1 15.67 100.04 15.75 100 15.83C99.95 15.91 99.92 16.01 99.9 16.1L98.8 22.2L103.4 22.2C103.5 22.2 103.59 22.18 103.68 22.14C103.77 22.1 103.85 22.05 103.92 21.99C104 21.93 104.06 21.85 104.1 21.77C104.15 21.69 104.18 21.59 104.2 21.5L105.1 16.4Z" />
			<path id="Layer" fill-rule="evenodd" class="shp0" d="M154.4 14.1C154.57 14.33 154.72 14.59 154.85 14.85C154.98 15.11 155.08 15.38 155.16 15.67C155.23 15.95 155.29 16.24 155.31 16.53C155.33 16.82 155.33 17.11 155.3 17.4L153.4 27.6C153.31 28.06 153.14 28.5 152.9 28.91C152.66 29.31 152.36 29.67 151.99 29.97C151.63 30.27 151.22 30.5 150.78 30.66C150.34 30.82 149.87 30.9 149.4 30.9L145.1 30.9C144.8 30.9 144.49 30.86 144.2 30.79C143.9 30.73 143.61 30.63 143.34 30.5C143.06 30.37 142.8 30.21 142.56 30.03C142.32 29.84 142.1 29.63 141.9 29.4C141.71 29.18 141.54 28.93 141.4 28.67C141.26 28.41 141.15 28.14 141.07 27.85C140.99 27.57 140.95 27.28 140.94 26.98C140.92 26.69 140.95 26.39 141 26.1L141.8 21.8C141.89 21.34 142.06 20.9 142.3 20.49C142.54 20.09 142.84 19.73 143.21 19.43C143.57 19.13 143.98 18.9 144.42 18.74C144.86 18.58 145.33 18.5 145.8 18.5L151.3 18.5L151.7 16.4C151.71 16.34 151.71 16.28 151.7 16.21C151.7 16.15 151.69 16.09 151.67 16.03C151.65 15.97 151.63 15.91 151.6 15.86C151.57 15.8 151.54 15.75 151.5 15.7C151.46 15.66 151.42 15.62 151.38 15.58C151.33 15.55 151.28 15.51 151.23 15.49C151.18 15.46 151.13 15.44 151.07 15.43C151.01 15.41 150.96 15.4 150.9 15.4L144.7 15.4L145.2 12.6L151.2 12.6C151.5 12.6 151.81 12.64 152.1 12.71C152.4 12.77 152.69 12.87 152.96 13C153.24 13.13 153.5 13.29 153.74 13.47C153.98 13.66 154.2 13.87 154.4 14.1ZM148.9 28.1C149 28.1 149.09 28.08 149.18 28.04C149.27 28 149.35 27.95 149.42 27.89C149.5 27.83 149.56 27.75 149.6 27.67C149.65 27.59 149.68 27.49 149.7 27.4L150.8 21.3L146.2 21.3C146.1 21.3 146.01 21.32 145.92 21.36C145.83 21.4 145.75 21.45 145.68 21.51C145.6 21.57 145.54 21.65 145.5 21.73C145.45 21.81 145.42 21.91 145.4 22L144.5 27.1C144.49 27.16 144.49 27.22 144.5 27.29C144.5 27.35 144.51 27.41 144.53 27.47C144.55 27.53 144.57 27.59 144.6 27.64C144.63 27.7 144.66 27.75 144.7 27.8C144.74 27.84 144.78 27.88 144.82 27.92C144.87 27.95 144.92 27.99 144.97 28.01C145.02 28.04 145.07 28.06 145.13 28.07C145.19 28.09 145.24 28.1 145.3 28.1L148.9 28.1Z" />
			<path id="Layer" class="shp0" d="M128.5 16.2C128.52 16.09 128.55 15.99 128.6 15.89C128.66 15.8 128.73 15.71 128.81 15.64C128.89 15.57 128.98 15.51 129.08 15.47C129.18 15.43 129.29 15.4 129.4 15.4L135 15.4L135.5 12.5L129 12.5C128.52 12.51 128.04 12.6 127.59 12.77C127.14 12.93 126.73 13.18 126.36 13.48C125.99 13.79 125.67 14.16 125.42 14.57C125.17 14.98 125 15.43 124.9 15.9L123.1 25.9C123.05 26.2 123.02 26.5 123.04 26.8C123.05 27.11 123.09 27.41 123.17 27.7C123.25 27.99 123.36 28.28 123.5 28.55C123.64 28.81 123.81 29.07 124 29.3C124.2 29.53 124.42 29.74 124.66 29.93C124.9 30.11 125.16 30.27 125.44 30.4C125.71 30.53 126 30.63 126.3 30.69C126.59 30.76 126.9 30.8 127.2 30.8L132.2 30.8L132.7 28L127.4 28C127.33 28 127.27 28 127.2 27.98C127.14 27.97 127.08 27.95 127.02 27.93C126.96 27.9 126.9 27.87 126.85 27.83C126.79 27.79 126.74 27.75 126.7 27.7C126.67 27.64 126.64 27.58 126.61 27.51C126.58 27.45 126.56 27.38 126.55 27.31C126.53 27.25 126.52 27.18 126.51 27.11C126.5 27.04 126.5 26.97 126.5 26.9L128.5 16.2Z" />
			<path id="Layer" class="shp0" d="M137.5 14.3L134.4 30.9L138.1 30.9L141.2 14.3L137.5 14.3Z" />
			<path id="Layer" class="shp0" d="M138.3 9.8L137.8 12.6L141.4 12.6L142 9.8L138.3 9.8Z" />
			<path id="Layer" class="shp0" d="M168.9 14C168.7 13.77 168.48 13.56 168.24 13.37C168 13.19 167.74 13.03 167.46 12.9C167.19 12.77 166.9 12.67 166.6 12.61C166.31 12.54 166 12.5 165.7 12.5L161.4 12.5C160.93 12.5 160.46 12.58 160.02 12.74C159.58 12.9 159.17 13.13 158.81 13.43C158.44 13.73 158.14 14.09 157.9 14.49C157.66 14.9 157.49 15.34 157.4 15.8L154.7 30.8L158.3 30.8L161 16C161.02 15.91 161.05 15.81 161.1 15.73C161.14 15.65 161.2 15.57 161.28 15.51C161.35 15.45 161.43 15.4 161.52 15.36C161.61 15.32 161.7 15.3 161.8 15.3L165.4 15.3C165.46 15.3 165.51 15.31 165.57 15.33C165.63 15.34 165.68 15.36 165.73 15.39C165.78 15.41 165.83 15.45 165.88 15.48C165.92 15.52 165.96 15.56 166 15.6C166.04 15.65 166.07 15.7 166.1 15.76C166.13 15.81 166.15 15.87 166.17 15.93C166.19 15.99 166.2 16.05 166.2 16.11C166.21 16.18 166.21 16.24 166.2 16.3L163.6 30.8L167.2 30.8L169.6 17.3C169.69 17.02 169.74 16.73 169.76 16.43C169.77 16.14 169.75 15.85 169.69 15.56C169.63 15.27 169.53 14.99 169.4 14.73C169.26 14.46 169.1 14.22 168.9 14L168.9 14Z" />
			<path id="Layer" fill-rule="evenodd" class="shp0" d="M183.76 14.74C183.89 15.01 184 15.28 184.07 15.56C184.15 15.84 184.2 16.13 184.22 16.42C184.24 16.72 184.24 17.01 184.2 17.3L183.4 21.6C183.31 22.06 183.14 22.5 182.9 22.91C182.66 23.31 182.36 23.67 181.99 23.97C181.63 24.27 181.22 24.5 180.78 24.66C180.34 24.82 179.87 24.9 179.4 24.9L173.9 24.9L173.5 27C173.49 27.06 173.49 27.12 173.5 27.19C173.5 27.25 173.51 27.31 173.53 27.37C173.55 27.43 173.57 27.49 173.6 27.54C173.63 27.6 173.66 27.65 173.7 27.7C173.74 27.74 173.78 27.78 173.82 27.82C173.87 27.85 173.92 27.89 173.97 27.91C174.02 27.94 174.07 27.96 174.13 27.97C174.19 27.99 174.24 28 174.3 28L181.7 28L181.2 30.8L174 30.8C173.7 30.8 173.39 30.76 173.1 30.69C172.8 30.63 172.51 30.53 172.24 30.4C171.96 30.27 171.7 30.11 171.46 29.93C171.22 29.74 171 29.53 170.8 29.3C170.61 29.08 170.44 28.83 170.3 28.57C170.16 28.31 170.05 28.04 169.97 27.75C169.89 27.47 169.85 27.18 169.84 26.88C169.82 26.59 169.85 26.29 169.9 26L171.8 15.8C171.89 15.34 172.06 14.9 172.3 14.49C172.54 14.09 172.84 13.73 173.21 13.43C173.57 13.13 173.98 12.9 174.42 12.74C174.86 12.58 175.33 12.5 175.8 12.5L180.1 12.5C180.4 12.5 180.71 12.54 181 12.61C181.3 12.67 181.59 12.77 181.86 12.9C182.14 13.03 182.4 13.19 182.64 13.37C182.88 13.56 183.1 13.77 183.3 14C183.48 14.23 183.63 14.48 183.76 14.74ZM180.6 16.4C180.7 16 180.6 15.8 180.4 15.7C180.36 15.66 180.32 15.62 180.28 15.58C180.23 15.55 180.18 15.51 180.13 15.49C180.08 15.46 180.03 15.44 179.97 15.43C179.91 15.41 179.86 15.4 179.8 15.4L176.2 15.4C176.1 15.4 176.01 15.42 175.92 15.46C175.83 15.5 175.75 15.55 175.68 15.61C175.6 15.67 175.54 15.75 175.5 15.83C175.45 15.91 175.42 16.01 175.4 16.1L174.3 22.2L178.9 22.2C179 22.2 179.09 22.18 179.18 22.14C179.27 22.1 179.35 22.05 179.42 21.99C179.5 21.93 179.56 21.85 179.6 21.77C179.65 21.69 179.68 21.59 179.7 21.5L180.6 16.4Z" />
			<path id="Layer" class="shp0" d="M189.7 16.2C189.72 16.09 189.75 15.99 189.8 15.89C189.86 15.8 189.93 15.71 190.01 15.64C190.09 15.57 190.18 15.51 190.28 15.47C190.38 15.43 190.49 15.4 190.6 15.4L194.4 15.4L194.9 12.5L190.4 12.5L190.8 9.7L187.2 9.7L184.7 23.3L184.7 23.3L184.2 25.9C184.15 26.2 184.12 26.5 184.14 26.8C184.15 27.11 184.19 27.41 184.27 27.7C184.35 27.99 184.46 28.28 184.6 28.55C184.74 28.81 184.91 29.07 185.1 29.3C185.3 29.53 185.52 29.74 185.76 29.93C186 30.11 186.26 30.27 186.54 30.4C186.81 30.53 187.1 30.63 187.4 30.69C187.69 30.76 188 30.8 188.3 30.8L192.6 30.8L193.1 28L188.5 28C188.43 28 188.37 28 188.3 27.98C188.24 27.97 188.18 27.95 188.12 27.93C188.06 27.9 188 27.87 187.95 27.83C187.89 27.79 187.84 27.75 187.8 27.7C187.77 27.64 187.74 27.58 187.71 27.51C187.68 27.45 187.66 27.38 187.65 27.31C187.63 27.25 187.62 27.18 187.61 27.11C187.6 27.04 187.6 26.97 187.6 26.9L189.7 16.2Z" />
			<path id="Layer" class="shp1" d="M23.7 19.1L47.2 12.7L49.5 0L24.7 10.8C23.84 11.18 22.97 11.51 22.08 11.79C21.19 12.08 20.28 12.32 19.37 12.51C18.45 12.7 17.53 12.85 16.6 12.95C15.67 13.05 14.74 13.1 13.8 13.1L10.8 13.1L7.8 20.1L16.6 20.1C17.2 20.09 17.8 20.07 18.4 20.02C18.99 19.97 19.59 19.91 20.18 19.83C20.78 19.74 21.37 19.64 21.95 19.52C22.54 19.4 23.12 19.26 23.7 19.1L23.7 19.1Z" />
			<path id="Layer" class="shp1" d="M4 29.1L21.2 29.1L44.1 30.3L46.4 17.7L22.8 22C22.4 22.07 22.01 22.13 21.61 22.18C21.21 22.24 20.81 22.28 20.41 22.31C20.01 22.35 19.61 22.37 19.21 22.38C18.8 22.4 18.4 22.4 18 22.4L6.8 22.4L4 29.1Z" />
			<path id="Layer" class="shp1" d="M17.9 31.4L3 31.4L0 38.4L15.7 38.4C16.73 38.4 17.76 38.43 18.79 38.51C19.82 38.58 20.85 38.69 21.87 38.84C22.89 38.99 23.9 39.18 24.91 39.41C25.92 39.64 26.91 39.9 27.9 40.2L41.3 44.3L42.9 35.2L24.7 32C24.14 31.9 23.58 31.81 23.01 31.74C22.45 31.66 21.88 31.6 21.31 31.55C20.75 31.5 20.18 31.46 19.61 31.44C19.04 31.41 18.47 31.4 17.9 31.4L17.9 31.4Z" />
		</g>
		<g id="Layer">
			<path id="api " fill="#8b96ab" aria-label="api"  d="M224.91 31.24C226.53 31.24 227.8 30.86 228.99 30.03L228.99 31L232.63 31L232.63 21.87C232.63 18.55 230.45 16.66 226.64 16.66C224.62 16.66 222.59 17.15 220.38 18.18L221.73 20.9C223.51 20.12 224.83 19.74 226.02 19.74C227.99 19.74 228.99 20.58 228.99 22.2L228.99 23.2C227.88 22.85 226.72 22.66 225.56 22.66C221.94 22.66 219.78 24.25 219.78 26.92C219.78 29.49 221.89 31.24 224.91 31.24ZM223.32 26.84C223.32 25.76 224.32 25.09 226.02 25.09C227.1 25.09 228.07 25.25 228.99 25.6L228.99 27.71C228.13 28.3 227.1 28.6 225.88 28.6C224.32 28.6 223.32 27.92 223.32 26.84ZM235.44 36.64L239.14 36.64L239.14 30.08C240.25 30.81 241.6 31.19 242.98 31.19C247.05 31.19 250.24 28.03 250.24 23.98C250.24 19.93 247.08 16.74 243.08 16.74C241.6 16.74 240.22 17.2 239.09 18.09L239.09 16.93L235.44 16.93ZM242.49 19.9C244.78 19.9 246.59 21.66 246.59 23.98C246.59 26.3 244.81 28.06 242.49 28.06C241.17 28.06 239.95 27.57 239.14 26.76L239.14 21.23C239.98 20.36 241.14 19.9 242.49 19.9ZM254.34 15.26C255.5 15.26 256.45 14.31 256.45 13.15C256.45 11.99 255.5 11.05 254.34 11.05C253.18 11.05 252.24 11.99 252.24 13.15C252.24 14.31 253.18 15.26 254.34 15.26ZM256.21 16.93L252.51 16.93L252.51 31L256.21 31Z" />
			<path id="/" fill="#8b96ab" aria-label="/"  d="M204.51 31.39L207.41 31.39L216.29 12.3L213.39 12.3Z" />
		</g>
	</g>
</svg>