<svg version="1.2" baseProfile="tiny-ps" xmlns="http://www.w3.org/2000/svg" viewBox="0 0 130 30" width="130" height="30">
	<title>gerencianet-footer-svg</title>
	<style>
		tspan { white-space:pre }
		.shp0 { fill: #8b96ab } 
	</style>
	<g id="Layer">
		<g id="Layer">
			<g id="Layer">
				<path id="Layer" fill-rule="evenodd" class="shp0" d="M36.16 23.61L41.36 23.61C41.42 23.6 41.49 23.59 41.54 23.57C41.6 23.54 41.66 23.51 41.71 23.47C41.76 23.43 41.8 23.38 41.83 23.32C41.86 23.26 41.88 23.2 41.89 23.14L42.36 20.67L39.69 20.67C39.49 20.67 39.29 20.65 39.09 20.6C38.89 20.56 38.7 20.49 38.51 20.4C38.33 20.32 38.16 20.21 38 20.09C37.83 19.97 37.69 19.83 37.56 19.67C37.43 19.52 37.31 19.36 37.22 19.19C37.13 19.01 37.06 18.83 37 18.64C36.95 18.45 36.92 18.26 36.91 18.06C36.91 17.86 36.92 17.67 36.96 17.47L38.22 10.67C38.28 10.36 38.4 10.07 38.56 9.8C38.72 9.53 38.92 9.29 39.16 9.09C39.4 8.89 39.68 8.74 39.97 8.63C40.27 8.53 40.58 8.47 40.89 8.47L43.76 8.47C43.96 8.47 44.17 8.5 44.36 8.54C44.56 8.59 44.75 8.65 44.94 8.74C45.12 8.83 45.3 8.93 45.46 9.05C45.62 9.18 45.76 9.32 45.9 9.47C46.03 9.62 46.14 9.78 46.23 9.96C46.32 10.13 46.4 10.31 46.45 10.5C46.5 10.69 46.53 10.89 46.54 11.08C46.55 11.28 46.53 11.48 46.5 11.67L44.36 23.28C44.3 23.59 44.19 23.89 44.03 24.15C43.87 24.42 43.66 24.66 43.42 24.86C43.18 25.06 42.91 25.22 42.61 25.32C42.32 25.43 42.01 25.48 41.69 25.48L35.82 25.48L36.16 23.61ZM44.12 10.8C44.13 10.75 44.12 10.7 44.11 10.65C44.1 10.6 44.08 10.56 44.05 10.52C44.03 10.47 43.99 10.44 43.96 10.4C43.93 10.38 43.9 10.35 43.87 10.33C43.84 10.3 43.81 10.28 43.78 10.26C43.74 10.25 43.71 10.23 43.67 10.22C43.63 10.21 43.6 10.21 43.56 10.2L41.16 10.2C41.09 10.21 41.03 10.22 40.97 10.24C40.91 10.27 40.86 10.3 40.81 10.34C40.76 10.39 40.72 10.44 40.69 10.49C40.66 10.55 40.63 10.61 40.62 10.67L39.29 18.07C39.29 18.11 39.29 18.16 39.29 18.2C39.3 18.24 39.31 18.28 39.32 18.32C39.33 18.36 39.34 18.4 39.36 18.43C39.38 18.47 39.4 18.51 39.42 18.54C39.45 18.57 39.48 18.6 39.51 18.62C39.54 18.64 39.57 18.66 39.6 18.68C39.64 18.7 39.67 18.71 39.71 18.72C39.75 18.73 39.78 18.74 39.82 18.74L42.7 18.74L44.09 10.94C44.11 10.89 44.12 10.85 44.12 10.8Z" />
				<path id="Layer" class="shp0" d="M81.39 9.34C81.25 9.18 81.11 9.04 80.95 8.92C80.79 8.8 80.61 8.69 80.43 8.61C80.24 8.52 80.05 8.45 79.85 8.41C79.66 8.36 79.45 8.34 79.25 8.34L76.38 8.34C76.07 8.34 75.76 8.39 75.46 8.5C75.17 8.6 74.89 8.76 74.65 8.96C74.41 9.16 74.21 9.4 74.05 9.67C73.89 9.94 73.77 10.23 73.71 10.54L71.91 20.55L74.31 20.55L76.11 10.67C76.12 10.61 76.15 10.55 76.18 10.49C76.21 10.44 76.25 10.39 76.3 10.34C76.35 10.3 76.4 10.27 76.46 10.24C76.52 10.22 76.58 10.21 76.65 10.21L79.05 10.21C79.09 10.21 79.12 10.21 79.16 10.22C79.2 10.23 79.23 10.25 79.27 10.26C79.3 10.28 79.33 10.3 79.36 10.33C79.39 10.35 79.42 10.38 79.45 10.4C79.47 10.44 79.5 10.47 79.51 10.51C79.53 10.55 79.55 10.59 79.56 10.63C79.57 10.67 79.58 10.71 79.58 10.75C79.59 10.79 79.58 10.83 79.58 10.87L77.85 20.55L80.25 20.55L81.85 11.54C81.92 11.35 81.96 11.16 81.98 10.96C81.99 10.76 81.98 10.57 81.94 10.37C81.89 10.18 81.83 9.99 81.73 9.82C81.64 9.64 81.52 9.48 81.39 9.34L81.39 9.34Z" />
				<path id="Layer" class="shp0" d="M59.91 8.41C59.59 8.41 59.28 8.46 58.99 8.56C58.69 8.67 58.42 8.83 58.18 9.03C57.94 9.23 57.73 9.46 57.57 9.73C57.41 10 57.3 10.3 57.24 10.61L55.44 20.61L57.84 20.61L59.64 10.67C59.65 10.61 59.67 10.55 59.7 10.49C59.73 10.44 59.77 10.39 59.82 10.35C59.87 10.3 59.92 10.27 59.98 10.25C60.04 10.22 60.11 10.21 60.17 10.21L63.37 10.21L63.7 8.27L59.9 8.4L59.91 8.41Z" />
				<path id="Layer" fill-rule="evenodd" class="shp0" d="M55.3 9.34C55.43 9.49 55.54 9.65 55.63 9.83C55.72 10 55.79 10.18 55.84 10.37C55.89 10.56 55.92 10.76 55.93 10.95C55.94 11.15 55.93 11.35 55.9 11.54L55.37 14.4C55.31 14.71 55.2 15.01 55.04 15.28C54.88 15.54 54.67 15.78 54.43 15.98C54.19 16.18 53.91 16.34 53.62 16.44C53.32 16.55 53.01 16.6 52.7 16.6L49.03 16.6L48.76 18C48.76 18.05 48.76 18.09 48.76 18.13C48.77 18.17 48.77 18.21 48.79 18.25C48.8 18.29 48.81 18.33 48.83 18.37C48.85 18.4 48.87 18.44 48.9 18.47C48.92 18.5 48.95 18.53 48.98 18.55C49.01 18.57 49.04 18.59 49.08 18.61C49.11 18.63 49.15 18.64 49.18 18.65C49.22 18.66 49.26 18.67 49.3 18.67L54.23 18.67L53.9 20.54L49.1 20.54C48.9 20.54 48.69 20.51 48.5 20.47C48.3 20.42 48.11 20.36 47.92 20.27C47.74 20.19 47.56 20.08 47.4 19.96C47.24 19.83 47.1 19.69 46.96 19.54C46.83 19.39 46.72 19.23 46.63 19.05C46.54 18.88 46.46 18.7 46.41 18.51C46.36 18.32 46.33 18.12 46.32 17.93C46.31 17.73 46.33 17.53 46.36 17.34L47.63 10.54C47.69 10.23 47.8 9.94 47.96 9.67C48.12 9.4 48.33 9.16 48.57 8.96C48.81 8.76 49.09 8.6 49.38 8.5C49.68 8.39 49.99 8.34 50.3 8.34L53.17 8.34C53.37 8.34 53.57 8.36 53.77 8.41C53.97 8.45 54.16 8.52 54.34 8.61C54.53 8.69 54.7 8.8 54.86 8.92C55.02 9.04 55.17 9.18 55.3 9.34ZM53.53 10.8C53.54 10.75 53.53 10.7 53.52 10.65C53.51 10.6 53.49 10.56 53.46 10.52C53.44 10.47 53.41 10.44 53.37 10.4C53.34 10.37 53.32 10.35 53.29 10.32C53.26 10.3 53.22 10.28 53.19 10.26C53.16 10.24 53.12 10.23 53.08 10.22C53.05 10.21 53.01 10.21 52.97 10.2L50.57 10.2C50.51 10.21 50.44 10.22 50.38 10.24C50.32 10.27 50.27 10.3 50.22 10.34C50.17 10.38 50.13 10.43 50.1 10.49C50.07 10.55 50.05 10.61 50.04 10.67L49.37 14.81L52.37 14.81C52.43 14.8 52.5 14.79 52.55 14.77C52.61 14.74 52.67 14.71 52.72 14.67C52.77 14.62 52.81 14.57 52.84 14.52C52.87 14.46 52.89 14.4 52.9 14.34L53.5 10.94C53.52 10.89 53.53 10.84 53.53 10.8Z" />
				<path id="Layer" fill-rule="evenodd" class="shp0" d="M71.85 9.34C71.97 9.49 72.08 9.66 72.17 9.83C72.26 10 72.34 10.19 72.39 10.37C72.45 10.56 72.49 10.76 72.51 10.95C72.53 11.15 72.53 11.34 72.51 11.54L71.98 14.4C71.92 14.71 71.81 15.01 71.65 15.28C71.49 15.54 71.28 15.78 71.04 15.98C70.8 16.18 70.53 16.34 70.23 16.44C69.94 16.55 69.63 16.6 69.31 16.6L65.64 16.6L65.38 18C65.37 18.05 65.37 18.09 65.37 18.13C65.38 18.17 65.38 18.21 65.4 18.25C65.41 18.29 65.42 18.33 65.44 18.37C65.46 18.4 65.48 18.44 65.51 18.47C65.53 18.5 65.56 18.53 65.59 18.55C65.62 18.57 65.65 18.59 65.69 18.61C65.72 18.63 65.76 18.64 65.8 18.65C65.83 18.66 65.87 18.67 65.91 18.67L70.84 18.67L70.51 20.54L65.71 20.54C65.51 20.54 65.31 20.51 65.11 20.47C64.91 20.42 64.72 20.36 64.53 20.27C64.35 20.19 64.18 20.08 64.01 19.96C63.85 19.83 63.71 19.69 63.57 19.54C63.45 19.39 63.33 19.23 63.24 19.05C63.15 18.88 63.08 18.7 63.02 18.51C62.97 18.32 62.94 18.12 62.93 17.93C62.93 17.73 62.94 17.53 62.98 17.34L64.17 10.54C64.23 10.23 64.35 9.94 64.51 9.67C64.67 9.4 64.87 9.16 65.11 8.96C65.36 8.76 65.63 8.6 65.92 8.5C66.22 8.39 66.53 8.34 66.84 8.34L69.71 8.34C69.91 8.34 70.12 8.36 70.31 8.41C70.51 8.45 70.7 8.52 70.89 8.61C71.07 8.69 71.25 8.8 71.41 8.92C71.57 9.04 71.71 9.18 71.85 9.34ZM70.11 10.81C70.11 10.77 70.1 10.73 70.09 10.69C70.08 10.65 70.06 10.61 70.04 10.57C70.03 10.54 70 10.5 69.98 10.47C69.95 10.44 69.92 10.41 69.89 10.39C69.86 10.37 69.83 10.35 69.8 10.33C69.76 10.31 69.73 10.3 69.69 10.29C69.65 10.28 69.62 10.27 69.58 10.27L67.18 10.27C67.11 10.27 67.05 10.29 66.99 10.31C66.93 10.33 66.88 10.37 66.83 10.41C66.78 10.45 66.74 10.5 66.71 10.56C66.68 10.61 66.65 10.67 66.64 10.74L65.91 14.81L68.98 14.81C69.04 14.8 69.11 14.79 69.16 14.77C69.22 14.74 69.28 14.71 69.33 14.67C69.38 14.62 69.42 14.57 69.45 14.52C69.48 14.46 69.5 14.4 69.51 14.34L70.11 10.94C70.12 10.9 70.12 10.86 70.11 10.81Z" />
				<path id="Layer" fill-rule="evenodd" class="shp0" d="M103 9.41C103.11 9.56 103.22 9.73 103.3 9.91C103.39 10.08 103.45 10.26 103.5 10.45C103.56 10.64 103.59 10.83 103.61 11.03C103.62 11.22 103.62 11.42 103.6 11.61L102.33 18.41C102.27 18.72 102.16 19.01 102 19.28C101.84 19.55 101.63 19.79 101.39 19.99C101.15 20.19 100.88 20.34 100.58 20.45C100.29 20.56 99.98 20.61 99.66 20.61L96.8 20.61C96.59 20.61 96.39 20.58 96.19 20.54C96 20.49 95.8 20.43 95.62 20.34C95.44 20.26 95.26 20.15 95.1 20.03C94.94 19.9 94.79 19.76 94.66 19.61C94.53 19.46 94.42 19.3 94.33 19.13C94.23 18.95 94.16 18.77 94.11 18.58C94.06 18.39 94.03 18.19 94.02 18C94.01 17.8 94.03 17.6 94.06 17.41L94.6 14.54C94.65 14.23 94.77 13.94 94.93 13.67C95.09 13.4 95.29 13.16 95.53 12.96C95.78 12.76 96.05 12.61 96.34 12.5C96.64 12.4 96.95 12.34 97.26 12.34L100.93 12.34L101.2 10.94C101.2 10.9 101.2 10.86 101.2 10.82C101.2 10.78 101.19 10.73 101.18 10.69C101.17 10.65 101.15 10.62 101.13 10.58C101.11 10.54 101.09 10.51 101.07 10.47C101.04 10.44 101.01 10.42 100.98 10.39C100.95 10.37 100.92 10.35 100.89 10.33C100.85 10.32 100.82 10.3 100.78 10.29C100.74 10.28 100.7 10.28 100.67 10.27L96.53 10.27L96.86 8.41L100.86 8.41C101.07 8.41 101.27 8.43 101.47 8.48C101.66 8.52 101.86 8.59 102.04 8.67C102.22 8.76 102.4 8.86 102.56 8.99C102.72 9.11 102.87 9.25 103 9.41ZM99.52 18.71C99.58 18.68 99.63 18.65 99.68 18.61C99.73 18.57 99.77 18.52 99.8 18.46C99.83 18.4 99.85 18.34 99.87 18.28L100.6 14.21L97.53 14.21C97.47 14.21 97.4 14.23 97.34 14.25C97.28 14.28 97.23 14.31 97.18 14.35C97.13 14.39 97.09 14.44 97.06 14.5C97.03 14.56 97.01 14.62 97 14.68L96.4 18.08C96.39 18.12 96.39 18.16 96.4 18.2C96.4 18.24 96.41 18.29 96.42 18.33C96.43 18.37 96.44 18.4 96.46 18.44C96.48 18.48 96.5 18.51 96.53 18.55C96.55 18.58 96.58 18.6 96.61 18.63C96.64 18.65 96.68 18.67 96.71 18.69C96.74 18.7 96.78 18.72 96.82 18.73C96.85 18.74 96.89 18.74 96.93 18.75L99.33 18.75C99.39 18.74 99.46 18.73 99.52 18.71Z" />
				<path id="Layer" class="shp0" d="M85.72 10.81C85.73 10.74 85.76 10.67 85.79 10.6C85.83 10.54 85.87 10.48 85.93 10.43C85.98 10.38 86.04 10.35 86.11 10.32C86.18 10.29 86.25 10.28 86.32 10.27L90.06 10.27L90.39 8.34L86.06 8.34C85.73 8.34 85.42 8.4 85.12 8.52C84.82 8.63 84.54 8.79 84.29 8.99C84.04 9.2 83.83 9.44 83.67 9.72C83.5 9.99 83.39 10.29 83.32 10.61L82.12 17.28C82.08 17.48 82.07 17.68 82.08 17.88C82.09 18.08 82.12 18.28 82.17 18.48C82.22 18.67 82.29 18.86 82.39 19.04C82.48 19.22 82.59 19.39 82.72 19.55C82.85 19.7 83 19.84 83.16 19.96C83.32 20.09 83.49 20.19 83.68 20.28C83.86 20.36 84.05 20.43 84.25 20.47C84.45 20.52 84.65 20.54 84.86 20.55L88.19 20.55L88.52 18.68L84.99 18.68C84.94 18.68 84.9 18.67 84.86 18.67C84.81 18.66 84.77 18.65 84.73 18.63C84.69 18.61 84.65 18.59 84.62 18.56C84.58 18.54 84.55 18.51 84.52 18.48C84.5 18.44 84.48 18.39 84.46 18.35C84.44 18.31 84.43 18.26 84.42 18.22C84.41 18.17 84.4 18.13 84.39 18.08C84.39 18.04 84.39 17.99 84.39 17.94L85.72 10.81Z" />
				<g id="Layer">
					<path id="Layer" class="shp0" d="M91.72 9.54L89.66 20.61L92.13 20.61L94.19 9.54L91.72 9.54Z" />
					<path id="Layer" class="shp0" d="M92.26 6.54L91.92 8.41L94.32 8.41L94.72 6.54L92.26 6.54Z" />
				</g>
				<path id="Layer" class="shp0" d="M112.67 9.34C112.54 9.18 112.39 9.04 112.23 8.92C112.07 8.8 111.9 8.69 111.71 8.61C111.53 8.52 111.34 8.45 111.14 8.41C110.94 8.36 110.74 8.34 110.54 8.34L107.67 8.34C107.36 8.34 107.04 8.39 106.75 8.5C106.45 8.6 106.18 8.76 105.94 8.96C105.7 9.16 105.49 9.4 105.33 9.67C105.17 9.94 105.06 10.23 105 10.54L103.2 20.55L105.6 20.55L107.4 10.67C107.41 10.61 107.43 10.55 107.46 10.49C107.49 10.44 107.54 10.39 107.58 10.34C107.63 10.3 107.69 10.27 107.75 10.24C107.81 10.22 107.87 10.21 107.93 10.2L110.33 10.21C110.37 10.21 110.41 10.21 110.45 10.22C110.48 10.23 110.52 10.25 110.55 10.26C110.59 10.28 110.62 10.3 110.65 10.33C110.68 10.35 110.71 10.38 110.73 10.4C110.76 10.44 110.78 10.47 110.8 10.51C110.82 10.55 110.83 10.59 110.85 10.63C110.86 10.67 110.86 10.71 110.87 10.75C110.87 10.79 110.87 10.83 110.87 10.87L109.13 20.55L111.53 20.55L113.14 11.54C113.2 11.35 113.23 11.16 113.24 10.96C113.25 10.77 113.24 10.57 113.2 10.38C113.16 10.18 113.09 10 113 9.82C112.91 9.65 112.8 9.49 112.67 9.34Z" />
				<path id="Layer" fill-rule="evenodd" class="shp0" d="M122.28 9.34C122.4 9.49 122.5 9.66 122.59 9.83C122.67 10.01 122.74 10.19 122.79 10.38C122.85 10.57 122.88 10.76 122.89 10.96C122.91 11.15 122.9 11.35 122.88 11.54L122.34 14.4C122.28 14.71 122.17 15.01 122.01 15.28C121.85 15.54 121.65 15.78 121.4 15.98C121.16 16.18 120.89 16.34 120.59 16.44C120.3 16.55 119.99 16.6 119.68 16.6L116.01 16.6L115.74 18C115.74 18.05 115.73 18.09 115.74 18.13C115.74 18.17 115.75 18.21 115.76 18.25C115.77 18.29 115.79 18.33 115.81 18.37C115.82 18.4 115.85 18.44 115.87 18.47C115.9 18.5 115.93 18.53 115.96 18.55C115.99 18.57 116.02 18.59 116.05 18.61C116.09 18.63 116.12 18.64 116.16 18.65C116.2 18.66 116.23 18.67 116.27 18.67L121.21 18.67L120.88 20.54L116.07 20.54C115.87 20.54 115.67 20.51 115.47 20.47C115.27 20.42 115.08 20.36 114.9 20.27C114.71 20.19 114.54 20.08 114.38 19.96C114.22 19.83 114.07 19.69 113.94 19.54C113.81 19.39 113.7 19.23 113.61 19.05C113.51 18.88 113.44 18.7 113.39 18.51C113.34 18.32 113.31 18.12 113.3 17.93C113.29 17.73 113.3 17.53 113.34 17.34L114.61 10.54C114.67 10.23 114.78 9.94 114.94 9.67C115.1 9.4 115.3 9.16 115.55 8.96C115.79 8.76 116.06 8.6 116.36 8.5C116.65 8.39 116.96 8.34 117.28 8.34L120.14 8.34C120.35 8.34 120.55 8.36 120.75 8.41C120.94 8.45 121.14 8.52 121.32 8.61C121.5 8.69 121.68 8.8 121.84 8.92C122 9.04 122.15 9.18 122.28 9.34ZM120.34 10.47C120.32 10.44 120.29 10.41 120.26 10.39C120.23 10.37 120.2 10.35 120.16 10.33C120.13 10.31 120.09 10.3 120.06 10.29C120.02 10.28 119.98 10.27 119.94 10.27L117.54 10.27C117.48 10.27 117.42 10.29 117.36 10.31C117.3 10.33 117.24 10.37 117.19 10.41C117.15 10.45 117.1 10.5 117.07 10.56C117.04 10.61 117.02 10.67 117.01 10.74L116.28 14.81L119.34 14.81C119.41 14.8 119.47 14.79 119.53 14.77C119.59 14.74 119.65 14.71 119.69 14.67C119.74 14.62 119.78 14.57 119.81 14.52C119.85 14.46 119.87 14.4 119.88 14.34L120.48 10.94C120.54 10.67 120.48 10.54 120.34 10.47Z" />
				<path id="Layer" class="shp0" d="M126.55 10.81C126.56 10.74 126.58 10.67 126.62 10.6C126.65 10.54 126.7 10.48 126.75 10.43C126.81 10.38 126.87 10.35 126.94 10.32C127 10.29 127.08 10.28 127.15 10.27L129.68 10.27L130.02 8.34L127.02 8.34L127.28 6.47L124.88 6.47L123.21 15.54L123.21 15.54L122.88 17.28C122.84 17.48 122.83 17.68 122.84 17.88C122.85 18.08 122.88 18.28 122.93 18.48C122.98 18.67 123.05 18.86 123.15 19.04C123.24 19.22 123.35 19.39 123.48 19.54C123.61 19.7 123.76 19.84 123.92 19.96C124.08 20.09 124.25 20.19 124.44 20.28C124.62 20.36 124.81 20.43 125.01 20.47C125.21 20.52 125.41 20.54 125.61 20.54L128.48 20.54L128.82 18.68L125.75 18.68C125.7 18.68 125.66 18.67 125.62 18.67C125.57 18.66 125.53 18.65 125.49 18.63C125.45 18.61 125.41 18.59 125.38 18.56C125.34 18.54 125.31 18.51 125.28 18.48C125.26 18.44 125.24 18.39 125.22 18.35C125.2 18.31 125.19 18.26 125.18 18.22C125.17 18.17 125.16 18.13 125.15 18.08C125.15 18.04 125.15 17.99 125.15 17.94L126.55 10.81Z" />
			</g>
			<g id="Layer">
				<path id="Layer" class="shp0" d="M15.81 12.74L31.49 8.47L33.02 0L16.48 7.2C15.91 7.45 15.32 7.67 14.73 7.86C14.13 8.05 13.53 8.22 12.92 8.34C12.31 8.47 11.69 8.57 11.07 8.64C10.45 8.7 9.83 8.74 9.2 8.74L7.2 8.74L5.2 13.41L11.07 13.41C11.47 13.4 11.87 13.39 12.27 13.36C12.67 13.32 13.07 13.28 13.46 13.23C13.86 13.17 14.25 13.1 14.64 13.02C15.04 12.94 15.42 12.85 15.81 12.74L15.81 12.74Z" />
				<path id="Layer" class="shp0" d="M2.67 19.41L14.14 19.41L29.42 20.21L30.95 11.81L15.21 14.68C14.95 14.72 14.68 14.76 14.41 14.8C14.15 14.83 13.88 14.86 13.62 14.88C13.35 14.91 13.08 14.92 12.81 14.93C12.54 14.94 12.28 14.95 12.01 14.94L4.54 14.94L2.67 19.41Z" />
				<path id="Layer" class="shp0" d="M11.94 20.95L2 20.95L0 25.62L10.47 25.62C11.16 25.61 11.85 25.64 12.54 25.69C13.22 25.74 13.91 25.81 14.59 25.91C15.27 26.01 15.95 26.14 16.62 26.29C17.29 26.44 17.95 26.62 18.61 26.82L27.55 29.55L28.62 23.48L16.48 21.35C16.1 21.28 15.73 21.22 15.35 21.17C14.97 21.12 14.6 21.08 14.22 21.05C13.84 21.01 13.46 20.99 13.08 20.97C12.7 20.95 12.32 20.95 11.94 20.95L11.94 20.95Z" />
			</g>
		</g>
		<g id="Layer">
		</g>
	</g>
</svg>