<svg xmlns="http://www.w3.org/2000/svg" width="30" height="30" viewBox="0 0 30 30"><defs><style>.a,.d{fill:none;}.a{stroke:#8d8c95;stroke-width:2px;}.b{fill:#8d8c95;}.c{stroke:none;}</style></defs><g transform="translate(-1588 -3530)"><g class="a" transform="translate(1588 3530)"><rect class="c" width="30" height="30" rx="7"/><rect class="d" x="1" y="1" width="28" height="28" rx="6"/></g><path class="b" d="M15.757,9.914a8.079,8.079,0,1,0,8.079,8.079A8.066,8.066,0,0,0,15.757,9.914Zm0,13.331a5.252,5.252,0,1,1,5.252-5.252,5.262,5.262,0,0,1-5.252,5.252ZM26.051,9.584A1.884,1.884,0,1,1,24.166,7.7,1.88,1.88,0,0,1,26.051,9.584Z" transform="translate(1587.157 3527.007)"/></g></svg>