<svg width="195" height="45" xmlns="http://www.w3.org/2000/svg" version="1.1" xml:space="preserve">
 <g>
  <title>Layer 1</title>
  <g id="svg_1">
   <g id="svg_2">
    <g id="svg_3">
     <path class="st0" d="m53.7,38.5l8.8,0c2,0 3.6,-1.4 4,-3.3l3.2,-17.4c0.2,-1.2 -0.1,-2.4 -0.9,-3.3c-0.8,-0.9 -1.9,-1.5 -3.2,-1.5l-4.3,0c-2,0 -3.6,1.4 -4,3.3l-1.9,10.2c-0.2,1.2 0.1,2.4 0.9,3.3c0.8,0.9 1.9,1.5 3.2,1.5l4,0l-0.7,3.7c-0.1,0.4 -0.4,0.7 -0.8,0.7l-7.8,0l-0.5,2.8zm12.4,-21.8l-2.1,11.7l-4.3,0c-0.3,0 -0.5,-0.2 -0.6,-0.3c-0.1,-0.2 -0.2,-0.3 -0.2,-0.7l2,-11.1c0.1,-0.4 0.4,-0.7 0.8,-0.7l3.6,0c0.3,0 0.5,0.2 0.6,0.3c0.2,0.2 0.3,0.4 0.2,0.8z" fill="#ffffff" id="svg_4"/>
     <path class="st0" d="m122,14.3c-0.8,-0.9 -1.9,-1.5 -3.2,-1.5l-4.3,0c-2,0 -3.6,1.4 -4,3.3l-2.7,15l3.6,0l2.7,-14.8c0.1,-0.4 0.4,-0.7 0.8,-0.7l3.6,0c0.3,0 0.5,0.2 0.6,0.3s0.2,0.3 0.2,0.7l-2.6,14.5l3.6,0l2.4,-13.5c0.5,-1.1 0.1,-2.3 -0.7,-3.3z" fill="#ffffff" id="svg_5"/>
     <path class="st0" d="m89.8,12.9c-2,0 -3.6,1.4 -4,3.3l-2.7,15l3.6,0l2.7,-14.9c0.1,-0.4 0.4,-0.7 0.8,-0.7l4.8,0l0.5,-2.9l-5.7,0.2l0,0z" fill="#ffffff" id="svg_6"/>
     <path class="st0" d="m82.9,14.3c-0.8,-0.9 -1.9,-1.5 -3.2,-1.5l-4.3,0c-2,0 -3.6,1.4 -4,3.3l-1.9,10.2c-0.2,1.2 0.1,2.4 0.9,3.3s1.9,1.5 3.2,1.5l7.2,0l0.5,-2.8l-7.4,0c-0.3,0 -0.5,-0.2 -0.6,-0.3c-0.1,-0.1 -0.2,-0.3 -0.2,-0.7l0.4,-2.1l5.5,0c2,0 3.6,-1.4 4,-3.3l0.8,-4.3c0.2,-1.1 -0.1,-2.3 -0.9,-3.3zm-2.7,2.4l-0.9,5.1c-0.1,0.4 -0.4,0.7 -0.8,0.7l-4.5,0l1,-6.2c0.1,-0.4 0.4,-0.7 0.8,-0.7l3.6,0c0.3,0 0.5,0.2 0.6,0.3c0.2,0.2 0.3,0.4 0.2,0.8z" fill="#ffffff" id="svg_7"/>
     <path class="st0" d="m107.7,14.3c-0.8,-0.9 -1.9,-1.5 -3.2,-1.5l-4.3,0c-2,0 -3.6,1.4 -4,3.3l-1.8,10.2c-0.2,1.2 0.1,2.4 0.9,3.3s1.9,1.5 3.2,1.5l7.2,0l0.5,-2.8l-7.4,0c-0.3,0 -0.5,-0.2 -0.6,-0.3c-0.1,-0.1 -0.2,-0.3 -0.2,-0.7l0.4,-2.1l5.5,0c2,0 3.6,-1.4 4,-3.3l0.8,-4.3c0.1,-1.1 -0.2,-2.3 -1,-3.3zm-2.6,2.4l-0.9,5.1c-0.1,0.4 -0.4,0.7 -0.8,0.7l-4.6,0l1.1,-6.1c0.1,-0.4 0.4,-0.7 0.8,-0.7l3.6,0c0.3,0 0.5,0.2 0.6,0.3c0.1,0.1 0.2,0.3 0.2,0.7z" fill="#ffffff" id="svg_8"/>
     <path class="st0" d="m154.4,14.4c-0.8,-0.9 -1.9,-1.5 -3.2,-1.5l-6,0l-0.5,2.8l6.2,0c0.3,0 0.5,0.2 0.6,0.3c0.1,0.1 0.2,0.3 0.2,0.7l-0.4,2.1l-5.5,0c-2,0 -3.6,1.4 -4,3.3l-0.8,4.3c-0.2,1.2 0.1,2.4 0.9,3.3c0.8,0.9 1.9,1.5 3.2,1.5l4.3,0c2,0 3.6,-1.4 4,-3.3l1.9,-10.2c0.1,-1.2 -0.2,-2.4 -0.9,-3.3zm-5.5,14l-3.6,0c-0.3,0 -0.5,-0.2 -0.6,-0.3c-0.1,-0.1 -0.2,-0.3 -0.2,-0.7l0.9,-5.1c0.1,-0.4 0.4,-0.7 0.8,-0.7l4.6,0l-1.1,6.1c-0.1,0.4 -0.4,0.7 -0.8,0.7z" fill="#ffffff" id="svg_9"/>
     <path class="st0" d="m128.5,16.5c0.1,-0.5 0.5,-0.8 0.9,-0.8l5.6,0l0.5,-2.9l-6.5,0c-2,0 -3.7,1.5 -4.1,3.4l-1.8,10c-0.2,1.2 0.1,2.5 0.9,3.4s1.9,1.5 3.2,1.5l5,0l0.5,-2.8l-5.3,0c-0.4,0 -0.6,-0.2 -0.7,-0.3c-0.1,-0.2 -0.2,-0.4 -0.2,-0.8l2,-10.7z" fill="#ffffff" id="svg_10"/>
     <g id="svg_11">
      <polygon class="st0" points="137.5,14.6 134.4,31.2 138.1,31.2 141.2,14.6     " fill="#ffffff" id="svg_12"/>
      <polygon class="st0" points="138.3,10.1 137.8,12.9 141.4,12.9 142,10.1     " fill="#ffffff" id="svg_13"/>
     </g>
     <path class="st0" d="m168.9,14.3c-0.8,-0.9 -1.9,-1.5 -3.2,-1.5l-4.3,0c-2,0 -3.6,1.4 -4,3.3l-2.7,15l3.6,0l2.7,-14.8c0.1,-0.4 0.4,-0.7 0.8,-0.7l3.6,0c0.3,0 0.5,0.2 0.6,0.3c0.1,0.1 0.2,0.3 0.2,0.7l-2.6,14.5l3.6,0l2.4,-13.5c0.4,-1.1 0.1,-2.3 -0.7,-3.3z" fill="#ffffff" id="svg_14"/>
     <path class="st0" d="m183.3,14.3c-0.8,-0.9 -1.9,-1.5 -3.2,-1.5l-4.3,0c-2,0 -3.6,1.4 -4,3.3l-1.9,10.2c-0.2,1.2 0.1,2.4 0.9,3.3c0.8,0.9 1.9,1.5 3.2,1.5l7.2,0l0.5,-2.8l-7.4,0c-0.3,0 -0.5,-0.2 -0.6,-0.3c-0.1,-0.1 -0.2,-0.3 -0.2,-0.7l0.4,-2.1l5.5,0c2,0 3.6,-1.4 4,-3.3l0.8,-4.3c0.2,-1.1 -0.2,-2.3 -0.9,-3.3zm-2.7,2.4l-0.9,5.1c-0.1,0.4 -0.4,0.7 -0.8,0.7l-4.6,0l1.1,-6.1c0.1,-0.4 0.4,-0.7 0.8,-0.7l3.6,0c0.3,0 0.5,0.2 0.6,0.3c0.2,0.1 0.3,0.3 0.2,0.7z" fill="#ffffff" id="svg_15"/>
     <path class="st0" d="m189.7,16.5c0.1,-0.5 0.5,-0.8 0.9,-0.8l3.8,0l0.5,-2.9l-4.5,0l0.4,-2.8l-3.6,0l-2.5,13.6l0,0l-0.5,2.6c-0.2,1.2 0.1,2.5 0.9,3.4c0.8,0.9 1.9,1.5 3.2,1.5l4.3,0l0.5,-2.8l-4.6,0c-0.4,0 -0.6,-0.2 -0.7,-0.3c-0.1,-0.2 -0.2,-0.4 -0.2,-0.8l2.1,-10.7z" fill="#ffffff" id="svg_16"/>
    </g>
   </g>
   <g id="svg_17">
    <path class="st1" d="m23.7,19.4l23.5,-6.4l2.3,-12.7l-24.8,10.8c-3.4,1.5 -7.2,2.3 -10.9,2.3l-3,0l-3,7l8.8,0c2.4,0 4.8,-0.4 7.1,-1z" fill="#F37021" id="svg_18"/>
    <path class="st1" d="m4,29.4l17.2,0l22.9,1.2l2.3,-12.6l-23.6,4.3c-1.6,0.3 -3.2,0.4 -4.8,0.4l-11.2,0l-2.8,6.7z" fill="#F37021" id="svg_19"/>
    <path class="st1" d="m17.9,31.7l-14.9,0l-3,7l15.7,0c4.2,0 8.3,0.6 12.2,1.8l13.4,4.1l1.6,-9.1l-18.2,-3.2c-2.2,-0.4 -4.5,-0.6 -6.8,-0.6z" fill="#F37021" id="svg_20"/>
   </g>
  </g>
 </g>

</svg>