<svg version="1.2" baseProfile="tiny-ps" xmlns="http://www.w3.org/2000/svg" viewBox="0 0 51 45" width="51" height="45">
	<title>svg-svg</title>
	<style>
		tspan { white-space:pre }
		.shp0 { fill: #ffffff } 
	</style>
	<g id="Layer">
		<g id="svg_1">
			<g id="svg_17">
				<path id="svg_18" class="shp0" d="M24.7 19.4L48.2 13L50.5 0.3L25.7 11.1C22.3 12.6 18.5 13.4 14.8 13.4L11.8 13.4L8.8 20.4L17.6 20.4C20 20.4 22.4 20 24.7 19.4L24.7 19.4Z" />
				<path id="svg_19" class="shp0" d="M4 29.4L21.2 29.4L44.1 30.6L46.4 18L22.8 22.3C21.2 22.6 19.6 22.7 18 22.7L6.8 22.7L4 29.4L4 29.4Z" />
				<path id="svg_20" class="shp0" d="M17.9 31.7L3 31.7L0 38.7L15.7 38.7C19.9 38.7 24 39.3 27.9 40.5L41.3 44.6L42.9 35.5L24.7 32.3C22.5 31.9 20.2 31.7 17.9 31.7L17.9 31.7Z" />
			</g>
		</g>
	</g>
</svg>