<svg xmlns="http://www.w3.org/2000/svg" width="30" height="30" viewBox="0 0 30 30"><defs><style>.a,.d{fill:none;}.a{stroke:#8d8c95;stroke-width:2px;}.b{fill:#8d8c95;}.c{stroke:none;}</style></defs><g transform="translate(-1547 -3530)"><g class="a" transform="translate(1547 3530)"><rect class="c" width="30" height="30" rx="7"/><rect class="d" x="1" y="1" width="28" height="28" rx="6"/></g><path class="b" d="M13.731,6.478c.01.136.01.272.01.408A8.863,8.863,0,0,1,4.816,15.81,8.864,8.864,0,0,1,0,14.4a6.489,6.489,0,0,0,.757.039A6.282,6.282,0,0,0,4.651,13.1a3.142,3.142,0,0,1-2.933-2.175,3.955,3.955,0,0,0,.592.049,3.317,3.317,0,0,0,.825-.107A3.137,3.137,0,0,1,.621,7.789V7.751a3.159,3.159,0,0,0,1.418.4,3.141,3.141,0,0,1-.971-4.195A8.915,8.915,0,0,0,7.535,7.236a3.541,3.541,0,0,1-.078-.719,3.14,3.14,0,0,1,5.428-2.146,6.175,6.175,0,0,0,1.991-.757A3.128,3.128,0,0,1,13.5,5.342,6.288,6.288,0,0,0,15.3,4.857a6.742,6.742,0,0,1-1.573,1.622Z" transform="translate(1554.948 3535.904)"/></g></svg>