<svg xmlns="http://www.w3.org/2000/svg" width="35.993" height="27" viewBox="0 0 35.993 27"><defs><style>.a{fill:#8b96ab;}</style></defs><path class="a" d="M35.759,10.462a5.465,5.465,0,0,0-5.2-5.709c-3.9-.183-7.868-.253-11.924-.253H17.366c-4.05,0-8.029.07-11.924.253a5.477,5.477,0,0,0-5.2,5.723C.07,12.979-.007,15.482,0,17.985S.07,22.991.239,25.5a5.484,5.484,0,0,0,5.2,5.73c4.092.19,8.289.274,12.557.267q6.412.021,12.557-.267a5.485,5.485,0,0,0,5.2-5.73c.169-2.51.246-5.013.239-7.523Q36.012,14.224,35.759,10.462ZM14.554,24.882V11.067l10.195,6.9Z" transform="translate(0 -4.5)"/></svg>