<svg xmlns="http://www.w3.org/2000/svg" width="55" height="55" viewBox="0 0 55 55"><defs><style>.a{fill:#fff;opacity:0;}.b{fill:#8b96ab;}</style></defs><g transform="translate(-1254 -1270)"><rect class="a" width="55" height="55" transform="translate(1254 1270)"/><g transform="translate(1266 1279)"><path class="b" d="M1172.564,370.69a2.907,2.907,0,0,1-1.285-.81,2.046,2.046,0,0,1-.517-1.276c-.027-1.6-.037-3.2-.053-4.793,0-.13,0-.261,0-.446-.508,0-.984,0-1.459,0a2.493,2.493,0,0,1-1.792-.614,2.209,2.209,0,0,1-.8-1.632c-.017-2.127-.016-4.253-.017-6.38q0-3.965,0-7.93v-.635H1187c0,.455,0,.9,0,1.337q0,6.633,0,13.265a2.39,2.39,0,0,1-1.841,2.508,5.039,5.039,0,0,1-1,.081c-.394.013-.788,0-1.229,0,0,.491,0,.945,0,1.4-.007,1.273.022,2.548-.037,3.819a2.141,2.141,0,0,1-1.661,2.027,1.135,1.135,0,0,0-.155.077h-.866a1.154,1.154,0,0,0-.157-.075,2.175,2.175,0,0,1-1.677-2.019c-.06-.765-.028-1.537-.031-2.306,0-.96,0-1.919,0-2.9H1175.3v.411q0,2.218,0,4.435a2.213,2.213,0,0,1-.75,1.836,7.179,7.179,0,0,1-1.117.619Z" transform="translate(-1161.184 -333.832)"/><path class="b" d="M1182.1,175.065a1.462,1.462,0,0,1-.035.559c-.473.916-.975,1.816-1.478,2.742a9.392,9.392,0,0,1,5.219,8.2h-20.553c.132-3.769,2.024-6.375,5.23-8.2l-.984-1.821c-.177-.327-.376-.645-.522-.985a1.321,1.321,0,0,1,0-.5h.433l1.679,3.029a11.2,11.2,0,0,1,8.9,0l1.678-3.029Zm-1.889,7.795a.857.857,0,0,0,.844-.853.875.875,0,0,0-.842-.86.9.9,0,0,0-.852.859A.878.878,0,0,0,1180.208,182.86Zm-9.336,0a.877.877,0,0,0,.837-.867.893.893,0,0,0-.864-.846.878.878,0,0,0-.831.873A.86.86,0,0,0,1170.872,182.86Z" transform="translate(-1159.897 -175.065)"/><path class="b" d="M1461.5,347.064c0-1.681-.034-3.363.012-5.043a2.252,2.252,0,0,1,4.472-.076c.068,1.028.048,2.063.05,3.1.005,2.2,0,4.4,0,6.593a2.3,2.3,0,0,1-1.272,2.211,2.232,2.232,0,0,1-3.245-1.811c-.061-1.655-.014-3.314-.014-4.971Z" transform="translate(-1434.763 -328.102)"/><path class="b" d="M1095.589,347.027c0,1.669.031,3.338-.011,5.006a2.159,2.159,0,0,1-2.153,2.009,2.184,2.184,0,0,1-2.312-1.957c-.067-1.305-.05-2.616-.055-3.924-.007-1.921,0-3.843,0-5.764a2.32,2.32,0,0,1,1.48-2.288,2.273,2.273,0,0,1,3.075,2.235c.009,1.561,0,3.122,0,4.683Z" transform="translate(-1091.055 -328.071)"/></g></g></svg>