<svg xmlns="http://www.w3.org/2000/svg" width="55" height="55" viewBox="0 0 55 55"><defs><style>.a{fill:#fff;opacity:0;}.b{fill:#8b96ab;}</style></defs><g transform="translate(-1507 -1342)"><rect class="a" width="55" height="55" transform="translate(1507 1342)"/><g transform="translate(1514 1348)"><path class="b" d="M3976.671-346.035c-.556,3.543-1.147,7.08-1.659,10.628-.485,3.362-.856,6.739-1.355,10.1a2.626,2.626,0,0,1-.886,1.547c-5.274,4.075-10.586,8.1-15.9,12.131-.085.065-.252.021-.649.042,0-3.812-.046-7.606.056-11.4.014-.511.689-1.124,1.2-1.479,2.458-1.7,5.02-3.253,7.422-5.024a4.122,4.122,0,0,0,1.512-2.434,56.839,56.839,0,0,0,.628-7.475c.035-1.882.612-3.081,2.467-3.8,2.439-.946,4.775-2.157,7.157-3.254Z" transform="translate(-3935.395 354.187)"/><path class="b" d="M3906.4-345.553c2.812,1.416,5.5,2.7,8.095,4.139a2.651,2.651,0,0,1,.96,1.826c.335,2.828.464,5.683.839,8.5a3.432,3.432,0,0,0,1.266,2.1c2.481,1.782,5.094,3.38,7.607,5.121a2.464,2.464,0,0,1,1.1,1.544c.1,3.669.051,7.343.051,11.267a12.215,12.215,0,0,1-1.408-.778c-4.809-3.664-9.625-7.318-14.387-11.043a3.847,3.847,0,0,1-1.469-2.1c-.959-6.382-1.789-12.784-2.647-19.181A12.2,12.2,0,0,1,3906.4-345.553Z" transform="translate(-3906.386 353.664)"/><path class="b" d="M3907.283-357.787c6.637-2.49,12.8-4.873,19.028-7.063a5.444,5.444,0,0,1,3.235.469c5.636,2.033,11.24,4.155,17.275,6.4-2.835,1.465-5.236,2.786-7.718,3.93a3.113,3.113,0,0,1-2.146-.16c-2.782-1.076-5.5-2.33-8.3-3.354a4.218,4.218,0,0,0-2.717,0c-2.918,1.1-5.753,2.425-8.649,3.589a2.764,2.764,0,0,1-1.92.152C3912.8-354.984,3910.285-356.3,3907.283-357.787Z" transform="translate(-3906.908 364.964)"/><path class="b" d="M3964.057-331.956c-.254,2.893-.448,5.429-.729,7.956a1.857,1.857,0,0,1-.754,1.137c-1.985,1.378-4.014,2.695-6.445,4.31,0-3.161-.021-5.951.027-8.74a1.336,1.336,0,0,1,.593-.977C3959.062-329.484,3961.408-330.632,3964.057-331.956Z" transform="translate(-3935.341 345.749)"/><path class="b" d="M3935.547-330.817l7.694,3.785v9.077c-2.345-1.554-4.467-2.932-6.546-4.371a1.6,1.6,0,0,1-.5-1.06C3935.961-325.729,3935.779-328.078,3935.547-330.817Z" transform="translate(-3923.362 345.086)"/><path class="b" d="M3937.244-337.251c2.415-1.019,4.516-1.929,6.64-2.784a2.088,2.088,0,0,1,1.369-.147c2.183.847,4.332,1.783,6.871,2.849l-7.685,3.927Z" transform="translate(-3924.35 350.575)"/></g></g></svg>