<svg xmlns="http://www.w3.org/2000/svg" width="55" height="55" viewBox="0 0 55 55"><defs><style>.a{fill:#fff;opacity:0;}.b{fill:#8b96ab;}</style></defs><g transform="translate(-1506 -1270)"><rect class="a" width="55" height="55" transform="translate(1506 1270)"/><g transform="translate(1507 1279)"><path class="b" d="M1794.289,948.11a4.441,4.441,0,0,0,.526.041c.15,0,.2.057.229.189.067.312.151.619.215.931.029.139.108.187.233.238a.529.529,0,0,0,.658-.172c.189-.2.412-.376.611-.572a.169.169,0,0,1,.246-.031c.2.125.394.243.6.356a.147.147,0,0,1,.08.211c-.111.32-.2.648-.312.968a.218.218,0,0,0,.068.285c.064.05.109.129.177.167a.392.392,0,0,0,.246.065c.336-.081.67-.177,1-.281.133-.042.213-.027.275.107s.155.287.234.429c.151.272.152.272-.087.487-.212.192-.422.387-.639.573a.269.269,0,0,0-.087.279.608.608,0,0,0,.615.605,4.29,4.29,0,0,1,.748.195.206.206,0,0,1,.121.145c.013.244.01.489,0,.734,0,.049-.044.129-.081.138-.441.1-.884.195-1.345.294a2.633,2.633,0,0,0-.1.381.288.288,0,0,0,.078.2c.267.289.544.57.829.867-.136.229-.277.477-.432.715a.2.2,0,0,1-.176.058q-.5-.136-1-.3a.268.268,0,0,0-.288.064.532.532,0,0,0-.193.7,8.758,8.758,0,0,1,.251.908c-.258.149-.518.306-.786.448-.033.018-.122-.031-.162-.072-.237-.244-.471-.491-.7-.745a.285.285,0,0,0-.3-.083.515.515,0,0,0-.493.5c-.041.28-.138.552-.2.83-.026.118-.079.152-.195.147a5.4,5.4,0,0,0-.633,0c-.163.013-.207-.062-.236-.2-.07-.339-.151-.675-.232-1.011a.448.448,0,0,0-.636-.184c-.259.251-.519.5-.771.76-.089.091-.161.12-.278.045a4.885,4.885,0,0,0-.535-.3.193.193,0,0,1-.112-.262c.085-.349.166-.7.248-1.049.053-.226-.266-.543-.488-.484-.354.095-.709.19-1.06.294-.12.036-.187.017-.243-.1-.108-.226-.23-.446-.357-.688.293-.255.581-.513.879-.758a.3.3,0,0,0,.1-.328c-.041-.321-.215-.439-.512-.485-.26-.04-.512-.133-.77-.195-.123-.03-.182-.078-.166-.222a4.292,4.292,0,0,0,.023-.631.191.191,0,0,1,.174-.222c.323-.081.643-.174.966-.253.121-.029.165-.1.211-.211a.494.494,0,0,0-.186-.658c-.22-.169-.4-.387-.61-.572a.175.175,0,0,1-.03-.275,5.624,5.624,0,0,0,.332-.538.193.193,0,0,1,.265-.1c.326.093.654.181.983.268a.453.453,0,0,0,.5-.5l-.306-1.175c.262-.141.515-.285.777-.411a.221.221,0,0,1,.185.06q.366.357.714.73a.3.3,0,0,0,.3.091.559.559,0,0,0,.538-.558c.046-.3.142-.591.215-.886Zm-2.465,5.456a2.628,2.628,0,0,0,5.257.006,2.647,2.647,0,0,0-2.632-2.643A2.614,2.614,0,0,0,1791.824,953.566Z" transform="translate(-1767.542 -929.282)"/><path class="b" d="M1434.594,964.6q-.289.92-.577,1.842-1.415,4.547-2.825,9.1c-.047.153-.105.216-.278.213-.824-.01-1.649-.012-2.473,0-.19,0-.238-.084-.286-.232q-2.437-7.469-4.879-14.936c-.05-.154-.1-.308-.154-.484.087,0,.152-.01.218-.01.818,0,1.635.005,2.453,0a.256.256,0,0,1,.3.217q1.766,5.547,3.542,11.09c.02.063.044.126.085.246.047-.12.079-.19.1-.263q1.8-5.559,3.586-11.119c.052-.161.116-.227.293-.223.64.011,1.281.012,1.921,0a.274.274,0,0,1,.312.233q1.793,5.559,3.6,11.116a.418.418,0,0,0,.118.2c.023-.066.049-.131.07-.2q1.773-5.545,3.542-11.091c.049-.153.109-.211.279-.209.784.011,1.567.005,2.351.005h.237c-.029.1-.048.174-.072.247q-2.425,7.579-4.845,15.161a.3.3,0,0,1-.353.255c-.776-.014-1.553-.011-2.33,0a.247.247,0,0,1-.283-.209q-1.749-5.349-3.508-10.7c-.027-.082-.055-.163-.083-.245Z" transform="translate(-1423.12 -960.029)"/><path class="b" d="M1663.52,960.342v15.271c0,.274,0,.274-.282.275h-2.29c-.281,0-.282,0-.282-.292V964.4l-.062-.021-4.782,6.916-4.9-6.865-.046.005c0,.081-.013.163-.013.244q0,5.448,0,10.9c0,.307,0,.307-.311.307h-2.065c-.315,0-.315,0-.315-.308V963.886c0-1.1,0-2.19,0-3.285,0-.2.049-.268.261-.264.858.013,1.717.009,2.576,0a.37.37,0,0,1,.348.181q2.128,3.056,4.268,6.1c.045.065.094.127.159.215.071-.1.126-.173.18-.249q2.134-3.04,4.265-6.082a.352.352,0,0,1,.333-.169c.9.007,1.8,0,2.7,0Z" transform="translate(-1609.815 -960.284)"/><path class="b" d="M1578.33,960.341v.27q0,7.5,0,15c0,.279,0,.28-.276.28-.7,0-1.4-.006-2.105,0-.187,0-.244-.056-.243-.242q.009-3.009,0-6.019c0-.322,0-.322-.321-.322h-6.254c-.277,0-.278,0-.278.282q0,3.009,0,6.019c0,.278,0,.278-.282.279-.709,0-1.417,0-2.126,0-.171,0-.218-.054-.218-.221q.006-7.559,0-15.118c0-.06.007-.12.012-.2.081,0,.154-.01.226-.01.708,0,1.417.008,2.125-.006.21,0,.264.057.263.261-.007,1.972,0,3.944,0,5.917,0,.313,0,.313.308.313h6.274c.269,0,.27,0,.27-.271q0-2.968,0-5.937c0-.278,0-.278.275-.278h2.345Z" transform="translate(-1541.839 -960.284)"/><path class="b" d="M1745.251,968.743l-.718-1.327c.073-.067.146-.135.221-.2.4-.347.8-.7,1.209-1.036a.258.258,0,0,0,.091-.348,1.23,1.23,0,0,1-.1-.371c-.019-.235-.156-.307-.362-.357-.541-.132-1.076-.288-1.616-.425-.129-.032-.179-.083-.172-.22.021-.407.023-.816.048-1.223a.245.245,0,0,1,.15-.164c.553-.166,1.108-.326,1.666-.472a.283.283,0,0,0,.25-.266.67.67,0,0,1,.057-.236c.151-.281.039-.464-.18-.658-.4-.352-.763-.738-1.149-1.1a.179.179,0,0,1-.038-.273c.216-.329.424-.666.623-1.006a.19.19,0,0,1,.261-.1c.567.165,1.139.315,1.707.477.132.038.238.038.319-.088a.193.193,0,0,1,.056-.058.668.668,0,0,0,.251-.917c-.168-.449-.255-.928-.391-1.39-.036-.124-.014-.18.1-.239.355-.187.708-.38,1.054-.581a.177.177,0,0,1,.26.041c.4.42.805.832,1.2,1.253a.244.244,0,0,0,.319.081.614.614,0,0,1,.234-.068c.4-.011.534-.254.6-.611.088-.459.23-.907.342-1.362.031-.125.083-.178.22-.172.388.015.777.018,1.165.02a.2.2,0,0,1,.235.188c.052.271.128.537.206.854-.286-.074-.535-.125-.774-.205a.273.273,0,0,0-.388.15c-.158.292-.344.571-.524.851a.161.161,0,0,0,.031.244c.28.259.552.525.826.79.175.169.131.327-.107.392-.341.094-.681.189-1.023.274a.171.171,0,0,0-.154.2c0,.218-.029.435-.023.652a.244.244,0,0,1-.193.276,3.952,3.952,0,0,0-2.619,2.969,4.069,4.069,0,0,0,7.109,3.413.414.414,0,0,1,.273-.124c.954-.009,1.907-.007,2.862,0a.338.338,0,0,1,.222.066c.374.386.738.782,1.127,1.2-.2.342-.437.747-.687,1.142-.028.044-.152.062-.218.043q-.823-.233-1.64-.489a.248.248,0,0,0-.319.083.937.937,0,0,1-.231.229c-.25.16-.259.356-.171.621.159.482.273.98.423,1.466a.211.211,0,0,1-.129.3q-.516.268-1.018.563a.183.183,0,0,1-.274-.046c-.384-.423-.78-.836-1.164-1.26a.257.257,0,0,0-.333-.095.65.65,0,0,1-.233.069c-.365.015-.489.228-.55.561-.092.5-.243.988-.353,1.484-.031.141-.094.17-.221.168-.388-.006-.777-.007-1.165,0-.13,0-.188-.031-.219-.168-.134-.6-.287-1.186-.423-1.781-.027-.117-.075-.182-.191-.2a.306.306,0,0,1-.1-.02c-.372-.2-.631-.054-.89.237-.321.36-.691.676-1.031,1.019a.206.206,0,0,1-.3.036c-.368-.219-.743-.425-1.131-.645.141-.6.267-1.205.426-1.8a.554.554,0,0,0-.159-.583.619.619,0,0,0-.771-.188C1746.391,968.456,1745.828,968.587,1745.251,968.743Z" transform="translate(-1730.085 -935.269)"/><path class="b" d="M1840.5,987.6c.247.076.449.132.647.2a.178.178,0,0,0,.25-.091q.271-.479.562-.946a.163.163,0,0,0-.031-.243c-.271-.258-.535-.524-.8-.785-.1-.1-.107-.211.031-.246.432-.111.871-.2,1.329-.3a1.473,1.473,0,0,0,1.1,1.327c.791.3,1.6.56,2.413.805a9.255,9.255,0,0,1,2.607,1.13,4.192,4.192,0,0,1,1.864,3.177,4.5,4.5,0,0,1-.266,2.32,4.243,4.243,0,0,1-2.392,2.218,7.493,7.493,0,0,1-3.574.539,11.737,11.737,0,0,1-4.162-1.143.307.307,0,0,1-.2-.326c.008-.8,0-1.6,0-2.407,0-.066.006-.132.01-.226.087.047.153.08.215.117a10.053,10.053,0,0,0,3.275,1.317,6,6,0,0,0,3.062-.178,1.59,1.59,0,0,0,1.176-1.261,1.792,1.792,0,0,0-.683-1.828,5.388,5.388,0,0,0-1.77-.81c-.861-.272-1.731-.52-2.582-.822a4.326,4.326,0,0,1-1.872-1.234c-.053-.062-.1-.126-.153-.191A1.225,1.225,0,0,1,1840.5,987.6Z" transform="translate(-1809.785 -960.04)"/><path class="b" d="M1855.431,962.763a5.827,5.827,0,0,0-2.786-1.225,6.123,6.123,0,0,0-2.688.153,2.273,2.273,0,0,0-1.416,1.069c0-.188-.006-.376,0-.564a.2.2,0,0,0-.181-.239c-.364-.081-.722-.19-1.086-.274-.14-.032-.17-.12-.21-.236s.011-.173.086-.24c.27-.24.533-.487.805-.724a.158.158,0,0,0,.038-.241c-.09-.143-.166-.3-.259-.464.068-.041.128-.082.191-.115a6.6,6.6,0,0,1,2.486-.659,10,10,0,0,1,4.819.909.287.287,0,0,1,.214.313c-.011.775,0,1.55-.005,2.326C1855.44,962.61,1855.435,962.67,1855.431,962.763Z" transform="translate(-1815.739 -938.29)"/><path class="b" d="M1809.946,966.356c-.162.507-.315,1-.479,1.485a.228.228,0,0,0,.081.3,1.1,1.1,0,0,1,.261.257c.139.211.307.205.524.139.493-.151.993-.279,1.491-.416.045-.012.091-.019.148-.031a2.008,2.008,0,0,1,0,1.228,2.357,2.357,0,0,1-3.406,1.422,1.091,1.091,0,0,1-.242-.21c-.2-.211-.4-.425-.6-.641a.9.9,0,0,1-.157-.208,2.343,2.343,0,0,1,2.287-3.341A.665.665,0,0,1,1809.946,966.356Z" transform="translate(-1782.799 -944.396)"/></g></g></svg>