<svg xmlns="http://www.w3.org/2000/svg" width="55" height="55" viewBox="0 0 55 55"><defs><style>.a{fill:#fff;opacity:0;}.b{fill:#8b96ab;}</style></defs><g transform="translate(-1592 -1342)"><rect class="a" width="55" height="55" transform="translate(1592 1342)"/><g transform="translate(1594 1350)"><path class="b" d="M4033.63-350.209a21.742,21.742,0,0,1,1.929-2.855c2.449-2.642,4.983-5.2,7.5-7.783a2.905,2.905,0,0,1,4.249-.321,3.192,3.192,0,0,1,.22,4.539c-2.062,2.232-4.2,4.392-6.454,6.734,2.092,2.175,4.142,4.327,6.218,6.453a2.939,2.939,0,0,1,.842,3.446,4.1,4.1,0,0,1-2.271,1.96,3.246,3.246,0,0,1-2.627-.778c-2.95-2.871-5.774-5.873-8.586-8.882a8.224,8.224,0,0,1-1.02-1.949Z" transform="translate(-4033.63 369.943)"/><path class="b" d="M4221-349.648a20.568,20.568,0,0,1-1.894,2.871c-2.478,2.69-5.028,5.315-7.6,7.916a2.888,2.888,0,0,1-4.064.331,3.2,3.2,0,0,1-.753-4.064,5.215,5.215,0,0,1,.8-.969c1.974-2.067,3.955-4.127,6.04-6.3-.761-.815-1.476-1.6-2.207-2.362-1.425-1.492-2.9-2.936-4.276-4.475a3.183,3.183,0,0,1,.251-4.441,2.894,2.894,0,0,1,4.255.272c2.523,2.582,5.061,5.151,7.515,7.8a21.748,21.748,0,0,1,1.933,2.86Z" transform="translate(-4169.161 369.945)"/><path class="b" d="M0,32.136a9.822,9.822,0,0,1,.63-1.59Q8.793,16.123,17,1.722A2.937,2.937,0,0,1,21.039.353a3.039,3.039,0,0,1,1.123,4.253c-2.245,4.055-4.539,8.084-6.829,12.114Q10.476,25.269,5.593,33.8A2.879,2.879,0,0,1,2.075,35.38,3.077,3.077,0,0,1,0,32.136Z" transform="translate(11.592 4.312) rotate(-11)"/></g></g></svg>