<svg xmlns="http://www.w3.org/2000/svg" width="55" height="55" viewBox="0 0 55 55"><defs><style>.a{fill:#fff;opacity:0;}.b{fill:#8b96ab;}</style></defs><g transform="translate(-1595 -1270)"><rect class="a" width="55" height="55" transform="translate(1595 1270)"/><g transform="translate(1598 1280)"><path class="b" d="M1600.99,819.233c-1.926,1.891-3.788,3.852-5.792,5.656-2.739,2.464-5.587,4.809-8.536,7.088.446-.605.844-1.253,1.345-1.808,1.876-2.08,3.8-4.118,5.672-6.2a10.117,10.117,0,0,0,1.293-1.795c.821-1.457.558-2.6-1.009-3.084a26.541,26.541,0,0,0-6.024-1.154c-3.434-.22-6.887-.138-10.331-.2-5.552-.1-11.067-.448-16.361-2.36a15.253,15.253,0,0,1-9.077-8.261c1.2.937,2.383,1.98,3.682,2.851,3.269,2.193,7.014,3,10.843,3.458,6.924.82,13.886.683,20.839.816,3.658.07,7.315.422,10.962.761a9.872,9.872,0,0,1,2.494.95Z" transform="translate(-1552.169 -807.112)"/><path class="b" d="M1606.933,956.419a3.58,3.58,0,1,1-3.646-3.575A3.608,3.608,0,0,1,1606.933,956.419Z" transform="translate(-1590.572 -924.677)"/><path class="b" d="M1691.008,956.42a3.554,3.554,0,0,1-3.617,3.579,3.592,3.592,0,0,1-3.546-3.567,3.632,3.632,0,0,1,3.642-3.59A3.555,3.555,0,0,1,1691.008,956.42Z" transform="translate(-1658.395 -924.675)"/></g></g></svg>