<svg version="1.2" baseProfile="tiny-ps" xmlns="http://www.w3.org/2000/svg" viewBox="0 0 55 55" width="55" height="55">
	<title>item1-svg</title>
	<style>
		tspan { white-space:pre }
		.shp0 { opacity: 0;fill: #ffffff } 
		.shp1 { fill: #8b96ab } 
	</style>
	<g id="Layer">
		<path id="Layer" class="shp0" d="M0 0L55 0L55 55L0 55L0 0Z" />
		<path id="Layer" fill-rule="evenodd" class="shp1" d="M45.99 17.39C45.99 17.4 45.99 17.42 45.99 17.43C46 17.44 46 17.46 46 17.47C46 17.48 46 17.49 46 17.51L46 25.46C46 25.51 45.99 25.56 45.98 25.61C45.97 25.66 45.95 25.71 45.92 25.75C45.9 25.8 45.87 25.84 45.83 25.87C45.79 25.91 45.75 25.94 45.71 25.96L39.03 29.81L39.03 37.43C39.03 37.63 38.92 37.83 38.74 37.93L24.8 45.95C24.77 45.97 24.74 45.98 24.7 46C24.69 46 24.68 46.01 24.66 46.01C24.64 46.02 24.62 46.02 24.59 46.03C24.57 46.03 24.54 46.03 24.52 46.03C24.49 46.03 24.47 46.03 24.44 46.03C24.42 46.02 24.39 46.02 24.37 46.01C24.35 46.01 24.34 46 24.32 45.99C24.29 45.98 24.26 45.97 24.23 45.95L10.29 37.93C10.25 37.91 10.21 37.87 10.17 37.84C10.13 37.8 10.1 37.76 10.08 37.72C10.05 37.67 10.03 37.63 10.02 37.58C10.01 37.53 10 37.48 10 37.43L10 13.56C10 13.51 10.01 13.46 10.02 13.41C10.02 13.39 10.03 13.38 10.04 13.36C10.05 13.33 10.06 13.3 10.08 13.27C10.09 13.25 10.1 13.24 10.12 13.22C10.13 13.2 10.15 13.17 10.17 13.15C10.19 13.14 10.21 13.12 10.23 13.11C10.25 13.09 10.27 13.07 10.29 13.06L10.29 13.06L17.26 9.05C17.3 9.02 17.35 9 17.4 8.99C17.45 8.98 17.5 8.97 17.55 8.97C17.6 8.97 17.65 8.98 17.7 8.99C17.75 9 17.79 9.02 17.84 9.05L24.81 13.06L24.81 13.06C24.83 13.07 24.85 13.09 24.87 13.11C24.89 13.12 24.91 13.14 24.93 13.15C24.95 13.17 24.96 13.2 24.98 13.22C24.99 13.24 25.01 13.25 25.02 13.27C25.04 13.3 25.04 13.33 25.06 13.36C25.06 13.38 25.07 13.39 25.08 13.41C25.08 13.42 25.08 13.44 25.09 13.45C25.09 13.46 25.09 13.47 25.09 13.49C25.09 13.5 25.09 13.51 25.1 13.52C25.1 13.54 25.1 13.55 25.1 13.56L25.1 28.47L30.9 25.13L30.9 17.51C30.9 17.45 30.91 17.4 30.92 17.35C30.93 17.34 30.94 17.32 30.94 17.31C30.96 17.27 30.97 17.24 30.98 17.22C30.99 17.2 31.01 17.18 31.02 17.16C31.04 17.14 31.05 17.12 31.07 17.1C31.09 17.08 31.11 17.07 31.13 17.05C31.15 17.04 31.17 17.02 31.19 17L31.19 17L38.16 12.99C38.21 12.97 38.25 12.95 38.3 12.93C38.35 12.92 38.4 12.91 38.45 12.91C38.5 12.91 38.55 12.92 38.6 12.93C38.65 12.95 38.7 12.97 38.74 12.99L45.71 17C45.73 17.02 45.75 17.04 45.77 17.05C45.79 17.07 45.81 17.08 45.83 17.1C45.85 17.12 45.87 17.14 45.88 17.16C45.9 17.18 45.91 17.2 45.92 17.22C45.94 17.24 45.95 17.27 45.96 17.31C45.97 17.32 45.98 17.34 45.98 17.35C45.98 17.37 45.99 17.38 45.99 17.39ZM44.84 25.13L44.84 18.51L42.4 19.91L39.03 21.85L39.03 28.47L44.84 25.13L44.84 25.13ZM37.87 37.09L37.87 30.47L34.56 32.36L25.1 37.76L25.1 44.45L37.87 37.09ZM11.16 37.09L23.93 44.45L23.93 37.77L17.26 33.99L17.26 33.99L17.26 33.99C17.23 33.97 17.22 33.95 17.19 33.94C17.18 33.92 17.16 33.91 17.14 33.9L17.14 33.89C17.12 33.88 17.11 33.85 17.09 33.83C17.08 33.81 17.06 33.8 17.05 33.78L17.05 33.77C17.03 33.75 17.02 33.73 17.02 33.7C17.01 33.68 16.99 33.66 16.99 33.64L16.99 33.64C16.98 33.61 16.98 33.58 16.98 33.55C16.97 33.53 16.97 33.51 16.97 33.49L16.97 17.91L13.6 15.97L11.16 14.57L11.16 37.09ZM17.55 10.22L17.55 10.22L17.55 10.22L17.55 10.22ZM11.74 13.56L17.55 16.9L23.35 13.56L17.55 10.22L11.74 13.56ZM20.57 31.08L23.94 29.14L23.94 14.57L21.5 15.97L18.13 17.91L18.13 32.48L20.57 31.08ZM32.65 17.51L38.45 20.85L44.26 17.51L38.45 14.16L32.65 17.51ZM37.87 21.85L34.5 19.91L32.06 18.51L32.06 25.13L35.43 27.06L37.87 28.47L37.87 21.85ZM33.03 31.9L37.28 29.47L31.48 26.13L24.81 29.98L18.72 33.48L24.51 36.76L33.03 31.9Z" />
	</g>
</svg>