<svg xmlns="http://www.w3.org/2000/svg" width="55" height="55" viewBox="0 0 55 55"><defs><style>.a{fill:#fff;opacity:0;}.b{fill:#8b96ab;}</style></defs><g transform="translate(-1321 -1270)"><rect class="a" width="55" height="55" transform="translate(1321 1270)"/><g transform="translate(1333 1279)"><path class="b" d="M1346.1,476.054c-2.584,1.872-4.162,4.274-3.938,7.582s2.048,5.507,5.015,7.058a26.849,26.849,0,0,1-1.5,3.273,38.82,38.82,0,0,1-3.382,4.777,4.538,4.538,0,0,1-5.87,1.2,8.346,8.346,0,0,0-7.4-.053c-2.62,1.165-4.2.818-6.133-1.337a22.207,22.207,0,0,1-5.966-14.744,12.638,12.638,0,0,1,1.541-6.806c1.983-3.421,6.477-5.628,10.631-3.929,3.581,1.464,2.76,1.265,6.5-.083a8.841,8.841,0,0,1,9.467,1.791,8.232,8.232,0,0,1,.757.837A4.072,4.072,0,0,1,1346.1,476.054Z" transform="translate(-1316.915 -463.442)"/><path class="b" d="M1423.572,413.288a6.342,6.342,0,0,1-.493,3.549,7.754,7.754,0,0,1-5.276,4.854c-1.564.432-1.893.119-1.64-1.461a8.373,8.373,0,0,1,6.765-6.9C1423.119,413.3,1423.316,413.306,1423.572,413.288Z" transform="translate(-1401.141 -413.288)"/></g></g></svg>