<svg xmlns="http://www.w3.org/2000/svg" width="55" height="55" viewBox="0 0 55 55"><defs><style>.a{fill:#fff;opacity:0;}.b{fill:#8b96ab;}</style></defs><g transform="translate(-1254 -1342)"><rect class="a" width="55" height="55" transform="translate(1254 1342)"/><g transform="translate(1263 1351)"><path class="b" d="M3960.528-341.214l3.65,3.658a8.264,8.264,0,0,0,2.3-7.9c3.294-1.6,4.519-3.389,4.1-5.9a4.947,4.947,0,0,0-4.182-4.088c-2.581-.353-4.3.828-5.817,4.1-4.237-1.062-7.235,1.088-9.892,4.078-.677.761-1.431,1.453-2.165,2.162-1.359,1.315-2.728,2.619-4,3.836l3.87,4.01a8.326,8.326,0,0,1,.82-1.152c2.363-2.356,4.725-4.715,7.134-7.024a2.855,2.855,0,0,1,4.572.349A2.956,2.956,0,0,1,3960.528-341.214Zm-16.748-10.25c-.153-.341-.28-.631-.412-.918a4.9,4.9,0,0,0-5.233-3.068,4.957,4.957,0,0,0-4.232,3.874,4.847,4.847,0,0,0,2.791,5.5c.764.377.818.8.721,1.52a7.959,7.959,0,0,0,2.439,7.077c2.48,2.441,4.932,4.91,7.4,7.361a9.007,9.007,0,0,0,.708.577l-.226-.366,3.862-3.172c-.417-.456-.656-.736-.916-1-2.4-2.392-4.809-4.771-7.193-7.176a2.91,2.91,0,0,1-.3-4.022,2.911,2.911,0,0,1,3.993-.574c.263.161.518.335.462.3l3.805-3.457C3949.361-351.32,3946.713-351.8,3943.781-351.464Zm8.657,26.448c2.354,2.569,5.224,2.956,8.292,2.441,1.652,3.1,3.344,4.156,5.888,3.724a4.9,4.9,0,0,0,4-4.1c.376-2.547-.728-4.148-4.034-5.847.263-3.967-.338-5.532-3.229-8.409-1.775-1.765-3.574-3.507-5.314-5.306a21.281,21.281,0,0,1-1.581-2.041l-3.924,3.929c2.381,2.382,4.8,4.808,7.228,7.227,1.813,1.806,2.154,3.31,1.045,4.707-1.142,1.438-2.514,1.481-4.7.2Zm6.625-8.026-3.385-3.478c-.8.81-1.605,1.632-2.417,2.448-1.83,1.841-3.63,3.713-5.5,5.509-1.408,1.348-2.948,1.393-4.23.263a2.978,2.978,0,0,1-.3-4.136,2.234,2.234,0,0,1,.164-.243l-3.452-3.749c-2.144,1.946-2.751,3.821-2.531,7.8l-.69.363a4.911,4.911,0,0,0-2.891,5.343,4.893,4.893,0,0,0,4.023,4.072,4.782,4.782,0,0,0,5.348-2.823c.378-.788.85-.807,1.533-.746a6.974,6.974,0,0,0,5.724-1.621C3953.431-326.95,3956.224-330.051,3959.062-333.043Z" transform="translate(-3933.763 355.499)"/><path class="b" d="M3988.41-341.214a2.956,2.956,0,0,0,.39-3.865,2.855,2.855,0,0,0-4.572-.349c-2.41,2.308-4.771,4.667-7.134,7.024a8.285,8.285,0,0,0-.82,1.152l-3.87-4.01c1.269-1.217,2.638-2.521,4-3.836.733-.709,1.488-1.4,2.164-2.162,2.658-2.99,5.655-5.14,9.893-4.078,1.518-3.27,3.236-4.451,5.817-4.1a4.948,4.948,0,0,1,4.183,4.088c.422,2.507-.8,4.292-4.1,5.9a8.265,8.265,0,0,1-2.3,7.9Z" transform="translate(-3961.646 355.499)"/><path class="b" d="M3943.854-351.447c2.932-.337,5.58.145,7.668,2.467l-3.806,3.456c.056.036-.2-.138-.462-.3a2.911,2.911,0,0,0-3.993.574,2.91,2.91,0,0,0,.3,4.022c2.384,2.4,4.8,4.783,7.192,7.176.261.259.5.54.916,1l-3.862,3.172.226.366a8.992,8.992,0,0,1-.708-.577c-2.47-2.451-4.921-4.921-7.4-7.361a7.958,7.958,0,0,1-2.44-7.077c.1-.721.043-1.143-.72-1.52a4.847,4.847,0,0,1-2.792-5.5,4.958,4.958,0,0,1,4.232-3.874,4.9,4.9,0,0,1,5.233,3.068C3943.574-352.078,3943.7-351.788,3943.854-351.447Z" transform="translate(-3933.836 355.481)"/><path class="b" d="M4000.836-296.648l3.668-3.473c2.19,1.281,3.563,1.237,4.7-.2,1.108-1.4.768-2.9-1.046-4.707-2.427-2.419-4.847-4.845-7.228-7.227l3.924-3.929a21.223,21.223,0,0,0,1.581,2.04c1.74,1.8,3.539,3.541,5.314,5.306,2.892,2.877,3.492,4.442,3.229,8.409,3.306,1.7,4.41,3.3,4.034,5.847a4.9,4.9,0,0,1-4,4.1c-2.543.432-4.236-.62-5.888-3.724C4006.06-293.692,4003.19-294.079,4000.836-296.648Z" transform="translate(-3982.162 327.131)"/><path class="b" d="M3959.062-283.854c-2.838,2.992-5.63,6.093-8.606,9.006a6.974,6.974,0,0,1-5.724,1.621c-.683-.061-1.155-.042-1.533.746a4.782,4.782,0,0,1-5.348,2.823,4.893,4.893,0,0,1-4.023-4.072,4.911,4.911,0,0,1,2.891-5.343c.239-.124.477-.251.69-.363-.221-3.983.387-5.858,2.531-7.8l3.452,3.749a2.271,2.271,0,0,0-.164.243,2.978,2.978,0,0,0,.3,4.136c1.283,1.13,2.823,1.085,4.23-.263,1.874-1.8,3.674-3.668,5.5-5.509.811-.816,1.616-1.638,2.417-2.448Z" transform="translate(-3933.763 306.311)"/></g></g></svg>