<svg xmlns="http://www.w3.org/2000/svg" width="55" height="55" viewBox="0 0 55 55"><defs><style>.a{fill:#fff;opacity:0;}.b{fill:#8b96ab;}</style></defs><g transform="translate(-1404 -1270)"><rect class="a" width="55" height="55" transform="translate(1404 1270)"/><g transform="translate(1413 1279)"><path class="b" d="M1015.774,295.9a18.429,18.429,0,1,1,18.434-18.414A18.449,18.449,0,0,1,1015.774,295.9Zm17.617-18.421a17.6,17.6,0,1,0-17.828,17.6A17.659,17.659,0,0,0,1033.391,277.481Z" transform="translate(-997.367 -259.044)"/><path class="b" d="M1055.1,304.574v-.732h-7.338c2.5-5.2,6.479-8.46,12.18-9.29,5.614-.818,10.321,1.1,14.182,5.293a2.44,2.44,0,0,0-2.059,3.128,8.022,8.022,0,0,0,.567,1.931,9.645,9.645,0,0,1,.757,4.334,15.449,15.449,0,0,1-1.25,5.656c-.454,1.1-.867,2.214-1.3,3.321-.052.133-.109.265-.2.475l-.922-2.461q-1.856-4.953-3.7-9.909a1.98,1.98,0,0,1-.109-.845.862.862,0,0,1,.835-.809,5.49,5.49,0,0,1,.947-.066c.386.022.539-.116.477-.5-.012-.078-.012-.157-.02-.268h-10.87v.6c.439.105.869.177,1.277.313a2.339,2.339,0,0,1,1.548,1.469c.535,1.435,1.117,2.853,1.667,4.283a.718.718,0,0,1,.021.482q-1.643,3.972-3.312,7.934a1.921,1.921,0,0,1-.1.169c-.064-.124-.118-.208-.154-.3q-2.472-6.2-4.941-12.4a1.238,1.238,0,0,1,1.231-1.8C1054.7,304.576,1054.884,304.574,1055.1,304.574Z" transform="translate(-1043.762 -291.564)"/><path class="b" d="M1177.115,534.3a15.783,15.783,0,0,1-10.154.069l5.364-12.491Z" transform="translate(-1153.5 -501.018)"/><path class="b" d="M1040.358,454.372a15.566,15.566,0,0,1-7.334-18.032Z" transform="translate(-1029.597 -422.267)"/><path class="b" d="M1329.884,451.687l6.976-18.113A15.611,15.611,0,0,1,1329.884,451.687Z" transform="translate(-1303.491 -419.721)"/></g></g></svg>