<svg xmlns="http://www.w3.org/2000/svg" width="55" height="55" viewBox="0 0 55 55"><defs><style>.a{fill:rgba(255,255,255,0);}.b{fill:#8b96ab;}</style></defs><g transform="translate(-541 -1569)"><rect class="a" width="55" height="55" transform="translate(541 1569)"/><g transform="translate(544.017 1584.653)"><path class="b" d="M156.9,259.83a41.9,41.9,0,0,1-14.718-2.317,21.8,21.8,0,0,1-7.32-4.184A9.935,9.935,0,0,1,132,249.27a7.213,7.213,0,0,1,1.005-6.781,15.451,15.451,0,0,1,5.974-4.9,35.128,35.128,0,0,1,12.8-3.49,44.344,44.344,0,0,1,14.792.978,25.991,25.991,0,0,1,9.73,4.268,15.089,15.089,0,0,1,2.681,2.544c2.663,3.316,2.541,7.05-.241,10.269a18.188,18.188,0,0,1-6.763,4.676,38.528,38.528,0,0,1-14.449,2.967C157.291,259.8,157.051,259.822,156.9,259.83Zm4.295-5.728c.905,0,1.752.012,2.6-.016.1,0,.248-.215.277-.351.193-.894.376-1.791.525-2.693.051-.311.181-.39.471-.39.963,0,1.928.005,2.889-.041a5.537,5.537,0,0,0,5.5-4.958,3.738,3.738,0,0,0-.792-3.3,3.942,3.942,0,0,0-2.955-1.2c-1.846-.04-3.694-.005-5.541-.028-.371,0-.488.123-.554.472-.589,3.106-1.2,6.209-1.8,9.313C161.61,251.952,161.409,252.989,161.193,254.1Zm-22.091,0c.912,0,1.744.012,2.575-.016.1,0,.256-.21.285-.344.193-.878.387-1.757.521-2.645.059-.389.229-.458.568-.447.674.021,1.35.028,2.023.007a7.684,7.684,0,0,0,3.062-.538,5.824,5.824,0,0,0,3.24-6.081,3.122,3.122,0,0,0-1.667-2.347,5.335,5.335,0,0,0-2.609-.558c-1.654,0-3.309.012-4.963-.01-.4-.005-.552.1-.628.506-.509,2.713-1.05,5.42-1.577,8.13C139.658,251.177,139.391,252.6,139.1,254.1Zm17.085-16.423c-.824,0-1.577.02-2.329-.009-.367-.014-.489.116-.555.467-.658,3.454-1.336,6.9-2.007,10.356-.136.7-.264,1.406-.407,2.168.827,0,1.581-.015,2.333.007.339.01.466-.1.53-.443.416-2.209.867-4.411,1.282-6.62.062-.328.189-.416.5-.406.61.02,1.221,0,1.831,0,1.463,0,1.808.412,1.53,1.856-.331,1.719-.667,3.436-1,5.155-.025.132-.027.269-.042.429h2.73c.033-.047.062-.071.067-.1.416-2.143.891-4.278,1.226-6.434a2.209,2.209,0,0,0-2.105-2.815,21.285,21.285,0,0,0-2.639-.152c-.521-.02-1.044,0-1.617,0Z" transform="translate(-131.567 -233.873)"/><path class="b" d="M342.075,297.6c.279-1.434.548-2.851.833-4.265.227-1.131.236-1.141,1.381-1.124a13.654,13.654,0,0,1,1.965.117,1.38,1.38,0,0,1,1.309,1.607,7.542,7.542,0,0,1-.468,2.093,2.468,2.468,0,0,1-2.258,1.555C343.948,297.662,343.047,297.6,342.075,297.6Z" transform="translate(-308.56 -282.923)"/><path class="b" d="M203.32,297.643c.335-1.724.663-3.439,1.01-5.151a.385.385,0,0,1,.295-.218,27.044,27.044,0,0,1,2.784.1,1.431,1.431,0,0,1,1.406,1.718,6.485,6.485,0,0,1-.2,1.28,2.7,2.7,0,0,1-2.492,2.256C205.221,297.712,204.3,297.643,203.32,297.643Z" transform="translate(-191.896 -282.976)"/></g></g></svg>