<svg xmlns="http://www.w3.org/2000/svg" width="55" height="55" viewBox="0 0 55 55"><defs><style>.a{fill:rgba(255,255,255,0);}.b{fill:#8b96ab;}.c{fill:none;stroke:#29303e;stroke-linecap:round;stroke-linejoin:round;stroke-width:3px;}</style></defs><g transform="translate(-629 -1656)"><rect class="a" width="55" height="55" transform="translate(629 1656)"/><g transform="translate(632.93 1660.145)"><path class="b" d="M28.844,46.711a31.816,31.816,0,0,1-13.026-3h.774v-3.66a1.232,1.232,0,0,1,.419-.35,1.219,1.219,0,0,1,.55-.12.91.91,0,0,1,.715.3,1.155,1.155,0,0,1,.265.79v3.04h1.371v-3.24a1.6,1.6,0,0,0-.011-.191l0-.017c-.006-.054-.011-.108-.018-.163a1.271,1.271,0,0,1,.436-.384,1.188,1.188,0,0,1,.564-.135.91.91,0,0,1,.715.3,1.155,1.155,0,0,1,.265.79v3.04h1.371v-3.24a2.066,2.066,0,0,0-.561-1.49,1.909,1.909,0,0,0-1.43-.58,2.328,2.328,0,0,0-.969.2,2.068,2.068,0,0,0-.751.58,1.79,1.79,0,0,0-.665-.575,1.982,1.982,0,0,0-.9-.2,2.144,2.144,0,0,0-.74.124,2.022,2.022,0,0,0-.62.365V38.5H15.222v4.931A31.1,31.1,0,0,1,4.467,35.193,21.067,21.067,0,0,1,1.2,29.7,16.671,16.671,0,0,1,0,23.549a14.784,14.784,0,0,1,3.579-9.171,33.375,33.375,0,0,1,8.85-7.485,51.288,51.288,0,0,1,11.29-5.044A37.964,37.964,0,0,1,34.619,0c3.927,0,6.789.954,8.749,2.916,3.792,3.8,3.782,10.955,3.771,19.242q0,.69,0,1.39a37.622,37.622,0,0,1-1.028,9.11,21.877,21.877,0,0,1-3.238,7.352C39.726,44.457,35.006,46.711,28.844,46.711Zm5.438-4.533-.68.91a3.129,3.129,0,0,0,1.059.535,4.66,4.66,0,0,0,1.33.185,3.084,3.084,0,0,0,.91-.131,2.264,2.264,0,0,0,.72-.36,1.749,1.749,0,0,0,.475-.545,1.394,1.394,0,0,0,.175-.685,1.3,1.3,0,0,0-.416-.99,2.114,2.114,0,0,0-1.175-.5l-1-.15a1.291,1.291,0,0,1-.545-.165.374.374,0,0,1-.165-.325.421.421,0,0,1,.225-.37,1.119,1.119,0,0,1,.595-.14,2.577,2.577,0,0,1,.79.125,4.258,4.258,0,0,1,.82.375l.66-.88a4.046,4.046,0,0,0-1.03-.485,3.8,3.8,0,0,0-1.111-.165,2.548,2.548,0,0,0-1.579.45,1.439,1.439,0,0,0-.59,1.2,1.324,1.324,0,0,0,.4,1.01,2.173,2.173,0,0,0,1.175.5l1,.15a1.093,1.093,0,0,1,.495.169.386.386,0,0,1,.155.32.451.451,0,0,1-.274.4,1.538,1.538,0,0,1-.735.15,2.468,2.468,0,0,1-.82-.145A4.155,4.155,0,0,1,34.282,42.178Zm-7.52-1.561a2.61,2.61,0,0,0-1.571.42,1.367,1.367,0,0,0-.57,1.16,1.443,1.443,0,0,0,.53,1.155,2.064,2.064,0,0,0,1.37.445,2.822,2.822,0,0,0,.815-.111,2.462,2.462,0,0,0,.695-.339v.36h1.35v-3.38A1.789,1.789,0,0,0,28.8,38.9a2.437,2.437,0,0,0-1.635-.5,4.794,4.794,0,0,0-1.135.139,6.6,6.6,0,0,0-1.185.42l.5,1.01a6.149,6.149,0,0,1,.875-.325,2.734,2.734,0,0,1,.715-.105,1.27,1.27,0,0,1,.82.23.832.832,0,0,1,.28.68v.37a4.184,4.184,0,0,0-1.27-.2Zm4.25-2.119v5.21h1.37V38.5Zm.68-2.181a.785.785,0,1,0,.551.23A.757.757,0,0,0,31.692,36.317ZM41.5,29.4a2.844,2.844,0,0,0-1.091.21,2.764,2.764,0,0,0-.885.575,2.693,2.693,0,0,0-.59.859,2.678,2.678,0,0,0,.59,2.985,2.812,2.812,0,0,0,.885.57,2.928,2.928,0,0,0,2.181,0,2.812,2.812,0,0,0,.885-.57,2.714,2.714,0,0,0,.59-2.985,2.694,2.694,0,0,0-.59-.859,2.764,2.764,0,0,0-.885-.575A2.842,2.842,0,0,0,41.5,29.4Zm-16.91.1v3.23a2.043,2.043,0,0,0,.58,1.495,2.005,2.005,0,0,0,1.48.585,2.327,2.327,0,0,0,.8-.135,2.248,2.248,0,0,0,.67-.385v.42h1.37V29.5h-1.37v3.61a1.212,1.212,0,0,1-.455.385,1.4,1.4,0,0,1-.625.135,1.055,1.055,0,0,1-.785-.3,1.094,1.094,0,0,1-.3-.8V29.5Zm9.229,0v1.149h1.07v2.59a1.473,1.473,0,0,0,.445,1.156,1.939,1.939,0,0,0,1.316.394,3.706,3.706,0,0,0,.53-.045,3.441,3.441,0,0,0,.529-.114v-1.12a2.056,2.056,0,0,1-.37.1,2.555,2.555,0,0,1-.36.025.822.822,0,0,1-.56-.15.7.7,0,0,1-.16-.52v-2.31h1.48V29.5h-1.48V27.857l-1.37.31V29.5Zm-2.669,0v5.21h1.37V29.5ZM21.5,29.57h0v5.137h1.37v-7H21.012l-1.921,3.76-1.92-3.76h-1.86v7h1.34V29.557l2.42,4.65Zm10.332-2.254a.787.787,0,1,0,.55.23A.754.754,0,0,0,31.832,27.317Zm-4.95,15.5a1.222,1.222,0,0,1-.69-.176.56.56,0,0,1,.005-.949,1.327,1.327,0,0,1,.735-.176,3.591,3.591,0,0,1,.574.045,2.543,2.543,0,0,1,.526.145v.78a1.96,1.96,0,0,1-.526.245A2.185,2.185,0,0,1,26.882,42.818Zm14.621-9.2a1.366,1.366,0,0,1-1.021-.439,1.585,1.585,0,0,1,0-2.15,1.4,1.4,0,0,1,2.04,0,1.585,1.585,0,0,1,0,2.15A1.365,1.365,0,0,1,41.5,33.617Z"/><g transform="translate(13.137 12.55)"><path class="c" d="M18,7.5v8.088" transform="translate(-13.956 -7.5)"/><path class="c" d="M7.5,18h8.088" transform="translate(-7.5 -13.956)"/></g></g></g></svg>