<svg xmlns="http://www.w3.org/2000/svg" width="55" height="55" viewBox="0 0 55 55"><defs><style>.a{fill:rgba(255,255,255,0);}.b{fill:#8b96ab;}</style></defs><g transform="translate(-628 -1569)"><rect class="a" width="55" height="55" transform="translate(628 1569)"/><g transform="translate(635.86 1570.638)"><g transform="translate(0 0)"><path class="b" d="M255.509,283.034c-.927-.068-1.855-.124-2.781-.206a39.644,39.644,0,0,1-11.356-2.6,3.033,3.033,0,0,1-.271-.161c1.041.2,1.957.427,2.885.556,2.058.288,4.118.566,6.184.78a42.675,42.675,0,0,0,8.477,0,29.883,29.883,0,0,0,12.242-3.38,27.231,27.231,0,0,0,2.35-1.671c.116-.084.224-.181.392-.318a4.456,4.456,0,0,1-1.819,3.232,14.558,14.558,0,0,1-5.461,2.548,31.925,31.925,0,0,1-7.85,1.147c-.251.006-.5.052-.752.08Z" transform="translate(-234.357 -231.31)"/><path class="b" d="M234.558,266.079a6.338,6.338,0,0,0-3.239.455,2.883,2.883,0,0,0-.435.252c-.785.537-.828,1.254.006,1.716a10.862,10.862,0,0,0,2.6,1.06,45.132,45.132,0,0,0,11.439,1.045,41.55,41.55,0,0,0,9.662-1.044,16.2,16.2,0,0,0,3.249-1.216c1.191-.59,2.026-1.491,1.516-3.07.778.446,1.568.784,1.792,1.654a2.4,2.4,0,0,1-1.023,2.477,11.011,11.011,0,0,1-4.344,2.08,39.21,39.21,0,0,1-7.269,1.266,62.617,62.617,0,0,1-9.242.186,35.568,35.568,0,0,1-9.812-1.649,7,7,0,0,1-3.214-1.939,1.965,1.965,0,0,1,.379-3.1,6.99,6.99,0,0,1,3.64-1.243c.605-.055,1.22,0,1.83-.01A5.11,5.11,0,0,1,234.558,266.079Z" transform="translate(-225.655 -225.089)"/><path class="b" d="M263.809,173.611a7.264,7.264,0,0,1,.373,7.586,21.222,21.222,0,0,1-3.334,4.333c-1.308,1.438-2.615,2.884-3.82,4.407a3.474,3.474,0,0,0-.387,3.9c1.037,2.136,2.043,4.286,3.042,6.388-.461-.367-1.01-.786-1.539-1.229a21.853,21.853,0,0,1-4.282-4.6,8.925,8.925,0,0,1-1.374-3.13,5.007,5.007,0,0,1,1.276-4.314,34.145,34.145,0,0,1,4.874-4.518,21.285,21.285,0,0,0,4.384-4.489,4.985,4.985,0,0,0,.79-3.951A2.56,2.56,0,0,1,263.809,173.611Z" transform="translate(-240.716 -173.611)"/><path class="b" d="M243.909,232.834c-1.062.385-2.106.746-3.134,1.148a3.154,3.154,0,0,0-.85.544c-.391.331-.352.586.141.7a11.186,11.186,0,0,0,2.246.342c2.83.04,5.663.076,8.492,0,1.891-.053,3.779-.288,5.666-.476,1.154-.115,2.3-.294,3.586-.462-1.1.837-2.077,1.684-3.16,2.356a5.16,5.16,0,0,1-1.853.429,65.766,65.766,0,0,1-11.074.888,27.914,27.914,0,0,1-7.4-.79,7.544,7.544,0,0,1-1.756-.754,1.3,1.3,0,0,1-.072-2.292,7.645,7.645,0,0,1,3.2-1.16A29.023,29.023,0,0,1,243.909,232.834Z" transform="translate(-230.41 -206.973)"/><path class="b" d="M281.908,193.759c-1.175.844-2.392,1.637-3.513,2.548s-2.16,1.9-3.179,2.907a3.012,3.012,0,0,0-.516,3.769c.526,1.073,1.093,2.13,1.555,3.231a4.3,4.3,0,0,1-1.423,4.9,7.033,7.033,0,0,1-3.1,1.543c.371-.458.756-.884,1.086-1.35a3.356,3.356,0,0,0,.065-4.02c-.592-.944-1.219-1.869-1.764-2.839-1.219-2.17-.4-4.912.928-6.472a11.336,11.336,0,0,1,5.69-3.421c1.353-.4,2.751-.642,4.129-.956Z" transform="translate(-250.932 -184.872)"/><path class="b" d="M246.71,245.977c-.2.236-.3.343-.385.464a.624.624,0,0,0,.116.938,4.226,4.226,0,0,0,2.157.8,24.128,24.128,0,0,0,7.232.011c1.364-.2,2.709-.533,4.065-.794a.751.751,0,0,1,.483.032c.925.555,1.836,1.133,2.858,1.771-.879.3-1.645.588-2.431.813a30.547,30.547,0,0,1-9.735,1.114,18.006,18.006,0,0,1-6.821-1.306,4.388,4.388,0,0,1-.744-.426,1.125,1.125,0,0,1-.2-1.912,5.025,5.025,0,0,1,2.353-1.323A10.122,10.122,0,0,1,246.71,245.977Z" transform="translate(-235.35 -214.38)"/><path class="b" d="M250.473,258.479c-.408.814-.311,1.193.531,1.378a15.536,15.536,0,0,0,3.053.355,20.386,20.386,0,0,0,7.314-1.153.472.472,0,0,1,.364.055c.989.645,1.97,1.3,3.059,2.029-.786.352-1.478.731-2.215.978a20.8,20.8,0,0,1-6.252,1.136c-1.621.028-3.249.009-4.865-.111a8.253,8.253,0,0,1-3.564-1.025,1.458,1.458,0,0,1-.235-2.549A4.063,4.063,0,0,1,250.473,258.479Z" transform="translate(-237.693 -221.424)"/><path class="b" d="M294.109,233.767a5.075,5.075,0,0,1,3.634-1.052,3.383,3.383,0,0,1,3.166,3.059,5.81,5.81,0,0,1-2.008,5.563,10.754,10.754,0,0,1-4.4,2.2,6.762,6.762,0,0,1-1.462.248c.425-.351.853-.7,1.273-1.056a12.3,12.3,0,0,0,2.917-3.36,8.856,8.856,0,0,0,.833-2.159,2.676,2.676,0,0,0-1.953-3.129A13.739,13.739,0,0,0,294.109,233.767Z" transform="translate(-263.617 -206.886)"/></g></g></g></svg>