<svg xmlns="http://www.w3.org/2000/svg" width="55" height="55" viewBox="0 0 55 55"><defs><style>.a{fill:rgba(255,255,255,0);}.b{fill:#8b96ab;}</style></defs><g transform="translate(-447 -1569)"><rect class="a" width="55" height="55" transform="translate(447 1569)"/><g transform="translate(454.607 1576.131)"><path class="b" d="M350.341,188.342V230.08H308.6V188.342Zm-4.38,22.059c-1.915-3.233-6.519-4.2-9.32-1.938a5.867,5.867,0,0,0-1.791,2.705c-.862,2.815.435,5.228,3.425,6.739,1.214.614,2.485,1.113,3.7,1.728a1.853,1.853,0,0,1,1.191,2.1,2.035,2.035,0,0,1-2,1.556,4.257,4.257,0,0,1-4.505-2.319l-3.163,1.85a8.151,8.151,0,0,0,9.944,3.626,5.031,5.031,0,0,0,3.672-4.255,5.173,5.173,0,0,0-2.168-5.325,31.7,31.7,0,0,0-3.36-1.824c-.693-.361-1.427-.65-2.1-1.042a1.676,1.676,0,0,1-.862-2.1,1.542,1.542,0,0,1,1.96-1.1,16.738,16.738,0,0,1,2.735,1.359Zm-14.193-2.893H320.25v3.543h3.444v16.7h4.129V210.972h3.945Z" transform="translate(-308.603 -188.342)"/></g></g></svg>