<svg xmlns="http://www.w3.org/2000/svg" width="55" height="55" viewBox="0 0 55 55"><defs><style>.a{fill:rgba(255,255,255,0);}.b{fill:#8b96ab;}</style></defs><g transform="translate(-357 -1569)"><rect class="a" width="55" height="55" transform="translate(357 1569)"/><g transform="translate(359.172 1578.398)"><g transform="translate(0)"><path class="b" d="M293.967,243.531c-1.736-.273-3.463-.659-5.209-.8-9.517-.773-16.777,3.907-20.127,12.863a31.111,31.111,0,0,0-1.981,12.143c.026.714,0,1.43,0,2.221H250.691c.338-1.451.561-2.859.994-4.2,3.064-9.479,8.184-17.535,16.767-22.913,8.378-5.249,16.879-4.584,25.277.158a3.936,3.936,0,0,0,.508.2Z" transform="translate(-244.832 -233.64)"/><path class="b" d="M357.911,287.985c3.3,0,6.529-.118,9.743.038a5.84,5.84,0,0,1,5.111,4.951c.522,3.412-.7,6-3.389,7.143-.283.121-.578.216-1.033.385l5.521,5.8c-2.389,0-4.49.03-6.588-.031-.329-.01-.683-.4-.963-.677-1.124-1.117-2.224-2.258-3.585-3.647v4.279h-4.818Zm4.566,8.9c1.17,0,2.294.058,3.409-.017,1.065-.071,1.434-.836,1.408-1.8-.028-1.021-.143-2.121-1.4-2.3a25.183,25.183,0,0,0-3.421-.032Z" transform="translate(-322.788 -269.101)"/><path class="b" d="M233.76,306.827l-4.537-1.767c.386-1,.748-1.957,1.119-2.908.361-.924.73-1.845,1.158-2.924l4.768,1.734Z" transform="translate(-229.223 -277.306)"/><path class="b" d="M317.96,330.164c.6.178.911.25,1.2.358,1.132.418,2.822.54,3.261,1.344.73,1.332.654,3.105.948,4.872-1.6-.4-2.988-.711-4.353-1.112a1.157,1.157,0,0,1-.712-.753C318.14,333.354,318.072,331.825,317.96,330.164Z" transform="translate(-293.741 -299.798)"/><path class="b" d="M263.005,254.183l3,2.741c-1.138,1.321-2.193,2.549-3.255,3.772a2.022,2.022,0,0,1-.368.257l-3.186-2.717Z" transform="translate(-251.018 -244.555)"/><path class="b" d="M322.615,303.938l-3.867-1.558,1.5-5.684C323.584,298.636,323.592,298.66,322.615,303.938Z" transform="translate(-294.314 -275.466)"/><path class="b" d="M296.639,228.614l4.561-2.547,2.021,3.224-4.543,2.538Z" transform="translate(-278.239 -224.113)"/><path class="b" d="M333.664,277.855l-2.969-2.668,3.584-3.835c.718,1.059,1.337,1.88,1.837,2.769a1.167,1.167,0,0,1-.167,1.019C335.268,276.035,334.5,276.87,333.664,277.855Z" transform="translate(-303 -257.037)"/><path class="b" d="M388.443,227.534c-1.629-.6-3.158-1.14-4.657-1.75a1.059,1.059,0,0,1-.512-.79c-.029-.8.065-1.614.125-2.662,1.735.656,3.331,1.231,4.895,1.882a1.056,1.056,0,0,1,.412.846C388.682,225.861,388.544,226.658,388.443,227.534Z" transform="translate(-341.225 -221.397)"/><path class="b" d="M358.874,263.2l-4.545,1.771-1.59-3.105c1.585-.544,3.082-1.086,4.6-1.545.179-.054.613.293.725.545C358.375,261.566,358.576,262.311,358.874,263.2Z" transform="translate(-319.028 -249.016)"/><path class="b" d="M343.315,222.065l-5.278.277-1.021-3.019c1.665-.155,3.217-.328,4.774-.416a1.007,1.007,0,0,1,.73.565C342.827,220.259,343.026,221.087,343.315,222.065Z" transform="translate(-307.596 -218.906)"/><path class="b" d="M388.942,262.389c-1.442-.138-2.739-.237-4.026-.411a.892.892,0,0,1-.571-.585c-.174-.829-.256-1.678-.416-2.828l5.341.693C389.156,260.349,389.06,261.269,388.942,262.389Z" transform="translate(-341.705 -247.742)"/></g></g></g></svg>