<svg xmlns="http://www.w3.org/2000/svg" width="55" height="55" viewBox="0 0 55 55"><defs><style>.a{fill:rgba(255,255,255,0);}.b{fill:#8b96ab;}</style></defs><g transform="translate(-541 -1656)"><rect class="a" width="55" height="55" transform="translate(541 1656)"/><g transform="translate(543.051 1660.517)"><path class="b" d="M1429.669,513.668c-.15.4-.3.791-.5,1.331-.259-.34-.426-.529-.558-.739-2.176-3.462-5.132-4.589-9.049-3.358a19.513,19.513,0,0,0-2.956,1.311c-6.573,3.351-13.284,3.088-20.031.686a34.253,34.253,0,0,1-16.578-12.706c-.171-.239-.319-.494-.632-.981,9.1,5.82,18.331,8.4,28.684,3.284-9.372-7.257-16.621-16.127-23.513-25.331,3.145,2.524,6.24,5.115,9.451,7.553s6.525,4.714,9.913,6.928a165.545,165.545,0,0,1-12.858-16.552,158.765,158.765,0,0,0,23.751,19.017c2.186-4.681,2.3-14.539-4.054-23.886,1.069.759,2.178,1.467,3.2,2.285,6.291,5.038,10.6,11.32,12.037,19.377a21.706,21.706,0,0,1-.3,8.916,1.9,1.9,0,0,0,.236,1.392,18.685,18.685,0,0,1,3.612,8.71.974.974,0,0,0,.148.29Z" transform="translate(-1379.361 -470.225)"/></g></g></svg>