<svg xmlns="http://www.w3.org/2000/svg" width="55" height="55" viewBox="0 0 55 55"><defs><style>.a{fill:rgba(255,255,255,0);}.b{fill:#8b96ab;}</style></defs><g transform="translate(-260 -1656)"><rect class="a" width="55" height="55" transform="translate(260 1656)"/><g transform="translate(263.804 1657.583)"><path class="b" d="M996.638,413.709c0-3.4.033-6.794-.012-10.19a4.842,4.842,0,0,1,2.705-4.634c6.153-3.437,12.288-6.907,18.434-10.358a4.916,4.916,0,0,1,5.112,0q9.264,5.207,18.529,10.413a4.753,4.753,0,0,1,2.609,4.472q-.023,10.355,0,20.709a4.681,4.681,0,0,1-2.566,4.383q-9.218,5.177-18.428,10.369a5.124,5.124,0,0,1-5.4,0q-9.106-5.153-18.241-10.255a4.9,4.9,0,0,1-2.752-4.719C996.678,420.5,996.638,417.106,996.638,413.709Zm34.467-8.1c-2.271-3.609-8.17-6.849-14.662-4.946a13.65,13.65,0,0,0,1.355,26.5c6.1,1.1,11.674-2.265,13.241-5.333-1.258-.725-2.543-1.416-3.772-2.2a1.364,1.364,0,0,0-1.966.115,7.677,7.677,0,0,1-9.714.241,7.847,7.847,0,1,1,9.814-12.239c.315.259.91.577,1.16.448C1028.109,407.4,1029.595,406.486,1031.1,405.609Zm-2.07,9.381c.712.7-.481,1.98,1.1,2.245,2.069.347,1.462-1.271,1.678-2.264l2.049-.116v-2.232l-1.875-.12c-.744-.678.549-2.036-1.168-2.271-2.093-.287-1.321,1.337-1.618,2.253l-2.07.131v2.239Zm7.946-2.511-1.93.175v2.187l1.9.156c.7.726-.517,2.077,1.235,2.255,2.04.207,1.231-1.357,1.546-2.253l2.063-.168v-2.182l-2.034-.18c-.386-.881.53-2.328-1.442-2.25C1036.448,410.292,1037.589,411.69,1036.981,412.479Z" transform="translate(-996.622 -387.813)"/></g></g></svg>