<svg xmlns="http://www.w3.org/2000/svg" width="55" height="55" viewBox="0 0 55 55"><defs><style>.a{fill:rgba(255,255,255,0);}.b{fill:#8b96ab;}</style></defs><g transform="translate(-260 -1569)"><rect class="a" width="55" height="55" transform="translate(260 1569)"/><g transform="translate(266.157 1576.131)"><path class="b" d="M342.113,263.6V221.866h41.75V263.6Zm24.862-7.11c1.515,2.847,3.9,3.851,6.7,4.076,3.281.264,6.084-1.35,6.825-3.833.929-3.111-.319-5.733-3.59-7.43-1.155-.6-2.373-1.077-3.541-1.651s-1.743-1.685-.9-2.652c.465-.534,1.8-.484,2.707-.393.492.049.921.736,1.424,1.174l2.863-1.821c-1.672-2.82-3.864-3.72-7.116-3.078a5.149,5.149,0,0,0-4.209,4.236c-.393,2.824.728,4.859,3.556,6.32,1.033.534,2.147.911,3.185,1.436s2.434,1.266,1.686,2.546a3.625,3.625,0,0,1-3.017,1.338c-1.287-.186-2.452-1.213-3.8-1.949Zm-13.9.348a6.369,6.369,0,0,0,6.66,3.708c2.734-.343,4.859-1.8,4.962-4.135.224-5.1.069-10.224.069-15.391H360.9c-.045.694-.116,1.294-.118,1.894-.011,3.838.06,7.678-.062,11.512-.026.8-.618,2.086-1.181,2.228-.778.2-1.8-.434-2.669-.807-.323-.138-.53-.548-.79-.835Z" transform="translate(-342.113 -221.866)"/></g></g></svg>