<svg xmlns="http://www.w3.org/2000/svg" width="55" height="55" viewBox="0 0 55 55"><defs><style>.a{fill:rgba(255,255,255,0);}.b{fill:#8b96ab;}</style></defs><g transform="translate(-357 -1656)"><rect class="a" width="55" height="55" transform="translate(357 1656)"/><g transform="translate(362.912 1661.605)"><path class="b" d="M1199.291,443.978h19.268a8.748,8.748,0,0,1-.643.81q-21.066,21.077-42.143,42.142a8.788,8.788,0,0,1-.81.643v-18.1c.212-.2.434-.383.633-.592q11.391-11.9,22.775-23.8C1198.7,444.732,1198.985,444.345,1199.291,443.978Z" transform="translate(-1174.963 -443.978)"/><path class="b" d="M1187.963,582.189c1.7-1.774,3.375-3.564,5.091-5.318q7.311-7.47,14.647-14.915c.222-.226.46-.435.783-.74.639.668,1.229,1.305,1.84,1.922q9.067,9.153,18.136,18.3a7.042,7.042,0,0,1,.568.746Z" transform="translate(-1185.433 -538.399)"/><path class="b" d="M1174.963,466.748v-22.77h21.8a3.527,3.527,0,0,1-.28.382Q1185.724,455.556,1174.963,466.748Z" transform="translate(-1174.963 -443.978)"/></g></g></svg>