<svg xmlns="http://www.w3.org/2000/svg" width="55" height="55" viewBox="0 0 55 55"><defs><style>.a{fill:rgba(255,255,255,0);}.b{fill:#8b96ab;}</style></defs><g transform="translate(-447 -1656)"><rect class="a" width="55" height="55" transform="translate(447 1656)"/><g transform="translate(450.789 1658.814)"><path class="b" d="M1190.073,471.413h-3.731c-.391-.07-.779-.156-1.172-.209a14.868,14.868,0,0,1-7.5-2.78,3.84,3.84,0,0,1-1.765-3.022c.069-4.09.029-8.2.408-12.261.366-3.922,2.408-5.529,6.353-5.653,1.9-.059,3.8-.059,5.7-.128,2.226-.081,4.463-.1,6.673-.341a6.433,6.433,0,0,0,6.058-5.289,14.789,14.789,0,0,0,.368-1.931c.169-1.771.288-3.547.434-5.4,1.491,0,2.913.033,4.333-.009a3.725,3.725,0,0,1,3.43,1.588,24.1,24.1,0,0,1,2.319,4.534,27.457,27.457,0,0,1,.906,4.133v4.169c-.07.312-.165.62-.206.936a17.033,17.033,0,0,1-1.957,6.326,5.324,5.324,0,0,1-5.132,3.022c-5.366-.121-10.737-.037-16.105-.037h-1.354c.042.521.069.862.106,1.324h12.293c0,1.327-.087,2.532.018,3.721.216,2.45-.992,4.026-2.994,5.131a11.308,11.308,0,0,1-2.495,1.088C1193.423,470.76,1191.74,471.057,1190.073,471.413Zm4.975-3.9a2.278,2.278,0,0,0,2.249-2.321,2.362,2.362,0,0,0-2.352-2.252,2.332,2.332,0,0,0-2.235,2.357A2.243,2.243,0,0,0,1195.048,467.508Z" transform="translate(-1163.521 -422.04)"/><path class="b" d="M1119.457,404.9v-4.169c.07-.312.165-.62.206-.936a16.951,16.951,0,0,1,1.956-6.327,5.326,5.326,0,0,1,5.133-3.022c5.366.122,10.736.038,16.105.038h1.354l-.105-1.323h-12.294c0-1.327.087-2.533-.018-3.722-.216-2.45.992-4.026,2.994-5.131a11.3,11.3,0,0,1,2.494-1.088c1.645-.439,3.328-.736,5-1.091h3.73c.39.071.779.156,1.172.21a14.867,14.867,0,0,1,7.5,2.779,3.755,3.755,0,0,1,1.75,2.912c-.066,4.161-.024,8.342-.434,12.474-.351,3.543-1.917,4.815-5.434,5.4a11,11,0,0,1-1.523.151c-3.435.083-6.872.135-10.307.229-4.007.11-6.332,1.658-7.328,4.895a13.644,13.644,0,0,0-.52,2.566c-.187,1.769-.293,3.547-.439,5.4-1.488,0-2.911-.033-4.331.009a3.727,3.727,0,0,1-3.429-1.589,24.089,24.089,0,0,1-2.318-4.534A27.451,27.451,0,0,1,1119.457,404.9Zm17.849-22.869a2.287,2.287,0,0,0-2.254,2.32,2.3,2.3,0,1,0,4.589-.1A2.258,2.258,0,0,0,1137.306,382.032Z" transform="translate(-1119.457 -378.13)"/></g></g></svg>